<svg version="1.1" xmlns="http://www.w3.org/2000/svg" xmlns:xlink="http://www.w3.org/1999/xlink" viewBox="0 0 1080 60">
<pattern  x="-217.02" y="-1479.65" width="113.1" height="146.18" patternUnits="userSpaceOnUse" id="CODE" viewBox="0 -146.18 113.1 146.18" overflow="visible">
	<g>
		<rect y="-146.18" fill="none" width="113.1" height="146.18"/>
		<text transform="matrix(1 0 0 1 43.6025 -81.8916)" fill="#FFFFFF" font-family="'Montserrat-Bold'" font-size="6.5896px">;</text>
		<g>
			<g>
				<g id="_x7B__43_">

						<path fill="none" stroke="#FFFFFF" stroke-width="0.8641" stroke-linecap="square" stroke-linejoin="bevel" stroke-miterlimit="10" d="
						M42.05-21.15c-0.28,0.1-0.51,0.24-0.69,0.42c-0.18,0.18-0.32,0.39-0.43,0.64c-0.11,0.24-0.18,0.51-0.23,0.81
						c-0.04,0.3-0.06,0.61-0.06,0.94v1.97c0,0.65-0.17,1.24-0.52,1.76c-0.34,0.53-0.9,0.94-1.65,1.25c0.76,0.31,1.31,0.73,1.65,1.26
						c0.34,0.53,0.52,1.11,0.52,1.76v1.97c0,0.33,0.02,0.65,0.06,0.94c0.04,0.3,0.12,0.57,0.23,0.81c0.11,0.24,0.25,0.46,0.43,0.64
						c0.18,0.18,0.41,0.32,0.69,0.42"/>
				</g>
				<g id="_x7B__42_">

						<path fill="none" stroke="#FFFFFF" stroke-width="0.8641" stroke-linecap="square" stroke-linejoin="bevel" stroke-miterlimit="10" d="
						M46.88-5.55c0.28-0.1,0.51-0.24,0.69-0.42c0.18-0.18,0.32-0.39,0.43-0.64c0.11-0.24,0.18-0.51,0.23-0.81
						c0.04-0.3,0.06-0.61,0.06-0.94v-1.97c0-0.64,0.17-1.23,0.52-1.76c0.34-0.53,0.9-0.95,1.65-1.26c-0.76-0.31-1.31-0.73-1.65-1.25
						c-0.34-0.53-0.52-1.11-0.52-1.76v-1.97c0-0.33-0.02-0.65-0.06-0.94c-0.04-0.3-0.12-0.57-0.23-0.81
						c-0.11-0.24-0.25-0.46-0.43-0.64c-0.18-0.18-0.41-0.32-0.69-0.42"/>
				</g>
			</g>
			<g>
				<g id="_x7B__41_">

						<path fill="none" stroke="#FFFFFF" stroke-width="0.8641" stroke-linecap="square" stroke-linejoin="bevel" stroke-miterlimit="10" d="
						M70.67-91.62c-0.28,0.1-0.51,0.24-0.69,0.42c-0.18,0.18-0.32,0.39-0.43,0.64c-0.11,0.24-0.18,0.51-0.23,0.81
						c-0.04,0.3-0.06,0.61-0.06,0.94v1.97c0,0.65-0.17,1.24-0.52,1.76s-0.9,0.94-1.65,1.25c0.76,0.31,1.31,0.73,1.65,1.26
						c0.34,0.53,0.52,1.11,0.52,1.76v1.97c0,0.33,0.02,0.65,0.06,0.94c0.04,0.3,0.12,0.57,0.23,0.81c0.11,0.24,0.25,0.46,0.43,0.64
						c0.18,0.18,0.41,0.32,0.69,0.42"/>
				</g>
				<g id="_x7B__40_">

						<path fill="none" stroke="#FFFFFF" stroke-width="0.8641" stroke-linecap="square" stroke-linejoin="bevel" stroke-miterlimit="10" d="
						M75.5-76.01c0.28-0.1,0.51-0.24,0.69-0.42c0.18-0.18,0.32-0.39,0.43-0.64c0.11-0.24,0.18-0.51,0.23-0.81s0.06-0.61,0.06-0.94
						v-1.97c0-0.64,0.17-1.23,0.52-1.76c0.34-0.53,0.9-0.95,1.65-1.26c-0.76-0.31-1.31-0.73-1.65-1.25
						c-0.34-0.53-0.52-1.11-0.52-1.76v-1.97c0-0.33-0.02-0.65-0.06-0.94c-0.04-0.3-0.12-0.57-0.23-0.81
						c-0.11-0.24-0.25-0.46-0.43-0.64c-0.18-0.18-0.41-0.32-0.69-0.42"/>
				</g>
			</g>
			<g>
				<g id="_x7B__29_">

						<path fill="none" stroke="#FFFFFF" stroke-width="0.8641" stroke-linecap="square" stroke-linejoin="bevel" stroke-miterlimit="10" d="
						M99.28-68.13c-0.28,0.1-0.51,0.24-0.69,0.42c-0.18,0.18-0.32,0.39-0.43,0.64c-0.11,0.24-0.18,0.51-0.23,0.81
						c-0.04,0.3-0.06,0.61-0.06,0.94v1.97c0,0.65-0.17,1.24-0.52,1.76s-0.9,0.94-1.65,1.25c0.76,0.31,1.31,0.73,1.65,1.26
						c0.34,0.53,0.52,1.11,0.52,1.76v1.97c0,0.33,0.02,0.65,0.06,0.94c0.04,0.3,0.12,0.57,0.23,0.81c0.11,0.24,0.25,0.46,0.43,0.64
						c0.18,0.18,0.41,0.32,0.69,0.42"/>
				</g>
				<g id="_x7B__28_">

						<path fill="none" stroke="#FFFFFF" stroke-width="0.8641" stroke-linecap="square" stroke-linejoin="bevel" stroke-miterlimit="10" d="
						M104.11-52.53c0.28-0.1,0.51-0.24,0.69-0.42c0.18-0.18,0.32-0.39,0.43-0.64c0.11-0.24,0.18-0.51,0.23-0.81
						c0.04-0.3,0.06-0.61,0.06-0.94v-1.97c0-0.64,0.17-1.23,0.52-1.76c0.34-0.53,0.9-0.95,1.65-1.26c-0.76-0.31-1.31-0.73-1.65-1.25
						s-0.52-1.11-0.52-1.76v-1.97c0-0.33-0.02-0.65-0.06-0.94c-0.04-0.3-0.12-0.57-0.23-0.81c-0.11-0.24-0.25-0.46-0.43-0.64
						c-0.18-0.18-0.41-0.32-0.69-0.42"/>
				</g>
			</g>
			<g>
				<g>
					<path fill="none" stroke="#FFFFFF" stroke-width="0.8641" stroke-miterlimit="10" d="M8.87-37.66l0.01,5.56
						c0.07,2.05,1.76,3.7,3.82,3.7h2.24c2.06,0,3.75-1.65,3.82-3.7l0.01-5.56H8.87z"/>

						<line fill="none" stroke="#FFFFFF" stroke-width="0.8641" stroke-miterlimit="10" x1="8.87" y1="-35.8" x2="18.77" y2="-35.8"/>
					<path fill="none" stroke="#FFFFFF" stroke-width="0.8641" stroke-miterlimit="10" d="M18.77-35.8h2.64c0.71,0,1.3,0.58,1.3,1.3
						v0.91c0,0.71-0.58,1.3-1.3,1.3h-2.64"/>
				</g>
				<g>
					<path fill="none" stroke="#FFFFFF" stroke-width="0.8641" stroke-miterlimit="10" d="M10.86-45.28
						c-0.19,0.37-0.44,0.62-0.44,1.31c0,1.1,0.65,1.1,0.65,2.21c0,0.92-0.45,1.07-0.6,1.73"/>
					<path fill="none" stroke="#FFFFFF" stroke-width="0.8641" stroke-miterlimit="10" d="M13.94-45.28
						c-0.19,0.37-0.44,0.62-0.44,1.31c0,1.1,0.65,1.1,0.65,2.21c0,0.92-0.45,1.07-0.6,1.73"/>
					<path fill="none" stroke="#FFFFFF" stroke-width="0.8641" stroke-miterlimit="10" d="M17.02-45.28
						c-0.19,0.37-0.44,0.62-0.44,1.31c0,1.1,0.65,1.1,0.65,2.21c0,0.92-0.45,1.07-0.6,1.73"/>
				</g>
			</g>
			<g>
				<g>
					<path fill="none" stroke="#FFFFFF" stroke-width="0.8641" stroke-miterlimit="10" d="M37.55-108.12l0.01,5.56
						c0.07,2.05,1.76,3.7,3.82,3.7h2.24c2.06,0,3.75-1.65,3.82-3.7l0.01-5.56H37.55z"/>

						<line fill="none" stroke="#FFFFFF" stroke-width="0.8641" stroke-miterlimit="10" x1="37.55" y1="-106.26" x2="47.45" y2="-106.26"/>
					<path fill="none" stroke="#FFFFFF" stroke-width="0.8641" stroke-miterlimit="10" d="M47.45-106.26h2.64
						c0.71,0,1.3,0.58,1.3,1.3v0.91c0,0.71-0.58,1.3-1.3,1.3h-2.64"/>
				</g>
				<g>
					<path fill="none" stroke="#FFFFFF" stroke-width="0.8641" stroke-miterlimit="10" d="M39.54-115.74
						c-0.19,0.37-0.44,0.62-0.44,1.31c0,1.1,0.65,1.1,0.65,2.21c0,0.92-0.45,1.07-0.6,1.73"/>
					<path fill="none" stroke="#FFFFFF" stroke-width="0.8641" stroke-miterlimit="10" d="M42.62-115.74
						c-0.19,0.37-0.44,0.62-0.44,1.31c0,1.1,0.65,1.1,0.65,2.21c0,0.92-0.45,1.07-0.6,1.73"/>
					<path fill="none" stroke="#FFFFFF" stroke-width="0.8641" stroke-miterlimit="10" d="M45.7-115.74
						c-0.19,0.37-0.44,0.62-0.44,1.31c0,1.1,0.65,1.1,0.65,2.21c0,0.92-0.45,1.07-0.6,1.73"/>
				</g>
			</g>
			<g>
				<path fill="none" stroke="#FFFFFF" stroke-width="0.8641" stroke-miterlimit="10" d="M17.95-91.65H6.64
					c-0.66,0-1.21,0.54-1.21,1.21v13.7c0,0.66,0.54,1.21,1.21,1.21h18.29c0.66,0,1.21-0.54,1.21-1.21v-13.7
					c0-0.66-0.54-1.21-1.21-1.21h-0.15"/>
				<g>
					<g>

							<line fill="none" stroke="#FFFFFF" stroke-width="0.8641" stroke-miterlimit="10" x1="8.3" y1="-87.87" x2="11.61" y2="-87.87"/>

							<line fill="none" stroke="#FFFFFF" stroke-width="0.8641" stroke-miterlimit="10" x1="12.16" y1="-87.87" x2="15.47" y2="-87.87"/>
					</g>
					<g>

							<line fill="none" stroke="#FFFFFF" stroke-width="0.8641" stroke-miterlimit="10" x1="9.95" y1="-85.23" x2="13.26" y2="-85.23"/>

							<line fill="none" stroke="#FFFFFF" stroke-width="0.8641" stroke-miterlimit="10" x1="13.82" y1="-85.23" x2="17.12" y2="-85.23"/>
					</g>
					<g>

							<line fill="none" stroke="#FFFFFF" stroke-width="0.8641" stroke-miterlimit="10" x1="11.88" y1="-82.59" x2="15.19" y2="-82.59"/>

							<line fill="none" stroke="#FFFFFF" stroke-width="0.8641" stroke-miterlimit="10" x1="15.75" y1="-82.59" x2="19.05" y2="-82.59"/>
					</g>
					<g>

							<line fill="none" stroke="#FFFFFF" stroke-width="0.8641" stroke-miterlimit="10" x1="10.25" y1="-79.95" x2="13.56" y2="-79.95"/>

							<line fill="none" stroke="#FFFFFF" stroke-width="0.8641" stroke-miterlimit="10" x1="14.12" y1="-79.95" x2="17.42" y2="-79.95"/>
					</g>
				</g>
				<g>
					<circle fill="#FFFFFF" cx="19.77" cy="-91.65" r="0.43"/>
					<circle fill="#FFFFFF" cx="21.37" cy="-91.65" r="0.43"/>
					<circle fill="#FFFFFF" cx="22.96" cy="-91.65" r="0.43"/>
				</g>
			</g>
			<g>
				<path fill="none" stroke="#FFFFFF" stroke-width="0.8641" stroke-miterlimit="10" d="M75.25-44.68H63.94
					c-0.66,0-1.21,0.54-1.21,1.21v13.7c0,0.66,0.54,1.21,1.21,1.21h18.29c0.66,0,1.21-0.54,1.21-1.21v-13.7
					c0-0.66-0.54-1.21-1.21-1.21h-0.15"/>
				<g>
					<g>

							<line fill="none" stroke="#FFFFFF" stroke-width="0.8641" stroke-miterlimit="10" x1="65.59" y1="-40.89" x2="68.9" y2="-40.89"/>

							<line fill="none" stroke="#FFFFFF" stroke-width="0.8641" stroke-miterlimit="10" x1="69.46" y1="-40.89" x2="72.77" y2="-40.89"/>
					</g>
					<g>

							<line fill="none" stroke="#FFFFFF" stroke-width="0.8641" stroke-miterlimit="10" x1="67.25" y1="-38.25" x2="70.56" y2="-38.25"/>

							<line fill="none" stroke="#FFFFFF" stroke-width="0.8641" stroke-miterlimit="10" x1="71.11" y1="-38.25" x2="74.42" y2="-38.25"/>
					</g>
					<g>

							<line fill="none" stroke="#FFFFFF" stroke-width="0.8641" stroke-miterlimit="10" x1="69.18" y1="-35.61" x2="72.49" y2="-35.61"/>

							<line fill="none" stroke="#FFFFFF" stroke-width="0.8641" stroke-miterlimit="10" x1="73.04" y1="-35.61" x2="76.35" y2="-35.61"/>
					</g>
					<g>

							<line fill="none" stroke="#FFFFFF" stroke-width="0.8641" stroke-miterlimit="10" x1="67.55" y1="-32.97" x2="70.86" y2="-32.97"/>

							<line fill="none" stroke="#FFFFFF" stroke-width="0.8641" stroke-miterlimit="10" x1="71.41" y1="-32.97" x2="74.72" y2="-32.97"/>
					</g>
				</g>
				<g>
					<circle fill="#FFFFFF" cx="77.07" cy="-44.68" r="0.43"/>
					<circle fill="#FFFFFF" cx="78.66" cy="-44.68" r="0.43"/>
					<circle fill="#FFFFFF" cx="80.25" cy="-44.68" r="0.43"/>
				</g>
			</g>
			<g>

					<line fill="none" stroke="#FFFFFF" stroke-width="0.8641" stroke-linecap="square" stroke-linejoin="bevel" stroke-miterlimit="10" x1="71.33" y1="-105.98" x2="74.83" y2="-105.98"/>

					<line fill="none" stroke="#FFFFFF" stroke-width="0.8641" stroke-linecap="square" stroke-linejoin="bevel" stroke-miterlimit="10" x1="71.33" y1="-108.63" x2="74.83" y2="-108.63"/>
			</g>
			<g>

					<line fill="none" stroke="#FFFFFF" stroke-width="0.8641" stroke-linecap="square" stroke-linejoin="bevel" stroke-miterlimit="10" x1="101.7" y1="-85.57" x2="101.7" y2="-82.07"/>

					<line fill="none" stroke="#FFFFFF" stroke-width="0.8641" stroke-linecap="square" stroke-linejoin="bevel" stroke-miterlimit="10" x1="100.46" y1="-82.58" x2="102.93" y2="-85.05"/>

					<line fill="none" stroke="#FFFFFF" stroke-width="0.8641" stroke-linecap="square" stroke-linejoin="bevel" stroke-miterlimit="10" x1="102.93" y1="-82.58" x2="100.46" y2="-85.05"/>

					<line fill="none" stroke="#FFFFFF" stroke-width="0.8641" stroke-linecap="square" stroke-linejoin="bevel" stroke-miterlimit="10" x1="99.95" y1="-83.82" x2="103.45" y2="-83.82"/>
			</g>
			<g>

					<line fill="none" stroke="#FFFFFF" stroke-width="0.8641" stroke-linecap="square" stroke-linejoin="bevel" stroke-miterlimit="10" x1="15.79" y1="-109.05" x2="15.79" y2="-105.55"/>

					<line fill="none" stroke="#FFFFFF" stroke-width="0.8641" stroke-linecap="square" stroke-linejoin="bevel" stroke-miterlimit="10" x1="14.55" y1="-106.07" x2="17.02" y2="-108.54"/>

					<line fill="none" stroke="#FFFFFF" stroke-width="0.8641" stroke-linecap="square" stroke-linejoin="bevel" stroke-miterlimit="10" x1="17.02" y1="-106.07" x2="14.55" y2="-108.54"/>

					<line fill="none" stroke="#FFFFFF" stroke-width="0.8641" stroke-linecap="square" stroke-linejoin="bevel" stroke-miterlimit="10" x1="14.04" y1="-107.3" x2="17.54" y2="-107.3"/>
			</g>
			<g>
				<g>

						<polyline fill="none" stroke="#FFFFFF" stroke-width="0.8641" stroke-linecap="square" stroke-linejoin="bevel" stroke-miterlimit="10" points="
						99.12,-106.16 96.23,-107.23 99.02,-108.21 					"/>

						<polyline fill="none" stroke="#FFFFFF" stroke-width="0.8641" stroke-linecap="square" stroke-linejoin="bevel" stroke-miterlimit="10" points="
						104.28,-106.16 107.16,-107.23 104.37,-108.21 					"/>
				</g>

					<line fill="none" stroke="#FFFFFF" stroke-width="0.8641" stroke-linecap="square" stroke-linejoin="bevel" stroke-miterlimit="10" x1="102.7" y1="-110.23" x2="100.69" y2="-104.38"/>
			</g>
			<g>
				<g>

						<polyline fill="none" stroke="#FFFFFF" stroke-width="0.8641" stroke-linecap="square" stroke-linejoin="bevel" stroke-miterlimit="10" points="
						41.89,-129.64 39,-130.72 41.79,-131.7 					"/>

						<polyline fill="none" stroke="#FFFFFF" stroke-width="0.8641" stroke-linecap="square" stroke-linejoin="bevel" stroke-miterlimit="10" points="
						47.05,-129.64 49.93,-130.72 47.14,-131.7 					"/>
				</g>

					<line fill="none" stroke="#FFFFFF" stroke-width="0.8641" stroke-linecap="square" stroke-linejoin="bevel" stroke-miterlimit="10" x1="45.48" y1="-133.72" x2="43.46" y2="-127.87"/>
			</g>
			<g>
				<g>

						<polyline fill="none" stroke="#FFFFFF" stroke-width="0.8641" stroke-linecap="square" stroke-linejoin="bevel" stroke-miterlimit="10" points="
						99.12,-35.69 96.23,-36.77 99.02,-37.75 					"/>

						<polyline fill="none" stroke="#FFFFFF" stroke-width="0.8641" stroke-linecap="square" stroke-linejoin="bevel" stroke-miterlimit="10" points="
						104.28,-35.69 107.16,-36.77 104.37,-37.75 					"/>
				</g>

					<line fill="none" stroke="#FFFFFF" stroke-width="0.8641" stroke-linecap="square" stroke-linejoin="bevel" stroke-miterlimit="10" x1="102.7" y1="-39.77" x2="100.69" y2="-33.91"/>
			</g>
			<path fill="#FFFFFF" d="M103.8-133.15l-5.74,0.99l4.48,3.73l0.21-1.6l2.16,0.58l0.22-0.81l0-0.01l0.22-0.81l-2.16-0.58
				L103.8-133.15 M105.19-134.27l-0.6,1.45l-0.24,0.58l1.21,0.32l0.83,0.22l-0.22,0.83l-0.22,0.82l-0.22,0.81l-0.22,0.83l-0.83-0.22
				l-1.21-0.32l-0.08,0.63l-0.21,1.55l-1.2-1l-4.48-3.73l-1.44-1.2l1.84-0.32l5.74-0.99L105.19-134.27L105.19-134.27z"/>
			<path fill="#FFFFFF" d="M17.89-62.69l-5.74,0.99l4.48,3.73l0.21-1.6l2.16,0.58l0.22-0.81l0-0.01l0.22-0.81l-2.16-0.58
				L17.89-62.69 M19.28-63.81l-0.6,1.45l-0.24,0.58l1.21,0.32l0.83,0.22l-0.22,0.83l-0.22,0.82l-0.22,0.81l-0.22,0.83l-0.83-0.22
				l-1.21-0.32l-0.08,0.63l-0.21,1.55l-1.2-1l-4.48-3.73l-1.44-1.2L12-62.55l5.74-0.99L19.28-63.81L19.28-63.81z"/>
			<g>

					<path fill="none" stroke="#FFFFFF" stroke-width="0.8641" stroke-linecap="square" stroke-linejoin="bevel" stroke-miterlimit="10" d="
					M44.48-53.42h-0.02c-2.02,0-3.67-1.65-3.67-3.67v-4.52c0-2.02,1.65-3.67,3.67-3.67h0.02c2.02,0,3.67,1.65,3.67,3.67v4.52
					C48.15-55.07,46.5-53.42,44.48-53.42z"/>

					<line fill="none" stroke="#FFFFFF" stroke-width="0.8641" stroke-linecap="square" stroke-linejoin="bevel" stroke-miterlimit="10" x1="40.79" y1="-61.27" x2="48.15" y2="-61.27"/>
				<g>
					<polyline fill="none" stroke="#FFFFFF" stroke-width="0.8641" stroke-linecap="square" stroke-miterlimit="10" points="
						38.5,-62.96 38.5,-60.25 40.79,-60.25 					"/>
					<polyline fill="none" stroke="#FFFFFF" stroke-width="0.8641" stroke-linecap="square" stroke-miterlimit="10" points="
						38.5,-53.94 38.5,-56.65 40.79,-56.65 					"/>

						<line fill="none" stroke="#FFFFFF" stroke-width="0.8641" stroke-linecap="square" stroke-miterlimit="10" x1="38.5" y1="-58.45" x2="40.79" y2="-58.45"/>
				</g>
				<g>
					<polyline fill="none" stroke="#FFFFFF" stroke-width="0.8641" stroke-linecap="square" stroke-miterlimit="10" points="
						50.44,-53.94 50.44,-56.65 48.15,-56.65 					"/>
					<polyline fill="none" stroke="#FFFFFF" stroke-width="0.8641" stroke-linecap="square" stroke-miterlimit="10" points="
						50.44,-62.96 50.44,-60.25 48.15,-60.25 					"/>

						<line fill="none" stroke="#FFFFFF" stroke-width="0.8641" stroke-linecap="square" stroke-miterlimit="10" x1="50.44" y1="-58.45" x2="48.15" y2="-58.45"/>
				</g>
				<g>

						<line fill="none" stroke="#FFFFFF" stroke-width="0.8641" stroke-linecap="square" stroke-miterlimit="10" x1="43.5" y1="-63.37" x2="43.5" y2="-62.96"/>

						<line fill="none" stroke="#FFFFFF" stroke-width="0.8641" stroke-linecap="square" stroke-miterlimit="10" x1="45.44" y1="-63.37" x2="45.44" y2="-62.96"/>
				</g>
				<polyline fill="none" stroke="#FFFFFF" stroke-width="0.8641" stroke-linecap="square" stroke-miterlimit="10" points="
					41.35,-67.24 42.44,-67.24 43.5,-65.28 				"/>
				<polyline fill="none" stroke="#FFFFFF" stroke-width="0.8641" stroke-linecap="square" stroke-miterlimit="10" points="
					47.58,-67.24 46.5,-67.24 45.44,-65.28 				"/>
			</g>
			<g>

					<path fill="none" stroke="#FFFFFF" stroke-width="0.8641" stroke-linecap="square" stroke-linejoin="bevel" stroke-miterlimit="10" d="
					M15.79-123.88h-0.02c-2.02,0-3.67-1.65-3.67-3.67v-4.52c0-2.02,1.65-3.67,3.67-3.67h0.02c2.02,0,3.67,1.65,3.67,3.67v4.52
					C19.47-125.53,17.81-123.88,15.79-123.88z"/>

					<line fill="none" stroke="#FFFFFF" stroke-width="0.8641" stroke-linecap="square" stroke-linejoin="bevel" stroke-miterlimit="10" x1="12.11" y1="-131.73" x2="19.47" y2="-131.73"/>
				<g>
					<polyline fill="none" stroke="#FFFFFF" stroke-width="0.8641" stroke-linecap="square" stroke-miterlimit="10" points="
						9.81,-133.42 9.81,-130.72 12.11,-130.72 					"/>
					<polyline fill="none" stroke="#FFFFFF" stroke-width="0.8641" stroke-linecap="square" stroke-miterlimit="10" points="
						9.81,-124.41 9.81,-127.11 12.11,-127.11 					"/>

						<line fill="none" stroke="#FFFFFF" stroke-width="0.8641" stroke-linecap="square" stroke-miterlimit="10" x1="9.81" y1="-128.91" x2="12.11" y2="-128.91"/>
				</g>
				<g>
					<polyline fill="none" stroke="#FFFFFF" stroke-width="0.8641" stroke-linecap="square" stroke-miterlimit="10" points="
						21.76,-124.41 21.76,-127.11 19.47,-127.11 					"/>
					<polyline fill="none" stroke="#FFFFFF" stroke-width="0.8641" stroke-linecap="square" stroke-miterlimit="10" points="
						21.76,-133.42 21.76,-130.72 19.47,-130.72 					"/>

						<line fill="none" stroke="#FFFFFF" stroke-width="0.8641" stroke-linecap="square" stroke-miterlimit="10" x1="21.76" y1="-128.91" x2="19.47" y2="-128.91"/>
				</g>
				<g>

						<line fill="none" stroke="#FFFFFF" stroke-width="0.8641" stroke-linecap="square" stroke-miterlimit="10" x1="14.81" y1="-133.83" x2="14.81" y2="-133.42"/>

						<line fill="none" stroke="#FFFFFF" stroke-width="0.8641" stroke-linecap="square" stroke-miterlimit="10" x1="16.76" y1="-133.83" x2="16.76" y2="-133.42"/>
				</g>
				<polyline fill="none" stroke="#FFFFFF" stroke-width="0.8641" stroke-linecap="square" stroke-miterlimit="10" points="
					12.67,-137.7 13.76,-137.7 14.81,-135.75 				"/>
				<polyline fill="none" stroke="#FFFFFF" stroke-width="0.8641" stroke-linecap="square" stroke-miterlimit="10" points="
					18.9,-137.7 17.81,-137.7 16.76,-135.75 				"/>
			</g>
			<g>

					<path fill="none" stroke="#FFFFFF" stroke-width="0.8641" stroke-linecap="square" stroke-linejoin="bevel" stroke-miterlimit="10" d="
					M101.7-6.44h-0.02c-2.02,0-3.67-1.65-3.67-3.67v-4.52c0-2.02,1.65-3.67,3.67-3.67h0.02c2.02,0,3.67,1.65,3.67,3.67v4.52
					C105.38-8.09,103.72-6.44,101.7-6.44z"/>

					<line fill="none" stroke="#FFFFFF" stroke-width="0.8641" stroke-linecap="square" stroke-linejoin="bevel" stroke-miterlimit="10" x1="98.02" y1="-14.29" x2="105.38" y2="-14.29"/>
				<g>
					<polyline fill="none" stroke="#FFFFFF" stroke-width="0.8641" stroke-linecap="square" stroke-miterlimit="10" points="
						95.73,-15.98 95.73,-13.28 98.02,-13.28 					"/>
					<polyline fill="none" stroke="#FFFFFF" stroke-width="0.8641" stroke-linecap="square" stroke-miterlimit="10" points="
						95.73,-6.97 95.73,-9.67 98.02,-9.67 					"/>

						<line fill="none" stroke="#FFFFFF" stroke-width="0.8641" stroke-linecap="square" stroke-miterlimit="10" x1="95.73" y1="-11.47" x2="98.02" y2="-11.47"/>
				</g>
				<g>
					<polyline fill="none" stroke="#FFFFFF" stroke-width="0.8641" stroke-linecap="square" stroke-miterlimit="10" points="
						107.67,-6.97 107.67,-9.67 105.38,-9.67 					"/>
					<polyline fill="none" stroke="#FFFFFF" stroke-width="0.8641" stroke-linecap="square" stroke-miterlimit="10" points="
						107.67,-15.98 107.67,-13.28 105.38,-13.28 					"/>

						<line fill="none" stroke="#FFFFFF" stroke-width="0.8641" stroke-linecap="square" stroke-miterlimit="10" x1="107.67" y1="-11.47" x2="105.38" y2="-11.47"/>
				</g>
				<g>

						<line fill="none" stroke="#FFFFFF" stroke-width="0.8641" stroke-linecap="square" stroke-miterlimit="10" x1="100.72" y1="-16.39" x2="100.72" y2="-15.98"/>

						<line fill="none" stroke="#FFFFFF" stroke-width="0.8641" stroke-linecap="square" stroke-miterlimit="10" x1="102.67" y1="-16.39" x2="102.67" y2="-15.98"/>
				</g>
				<polyline fill="none" stroke="#FFFFFF" stroke-width="0.8641" stroke-linecap="square" stroke-miterlimit="10" points="
					98.58,-20.26 99.67,-20.26 100.72,-18.31 				"/>
				<polyline fill="none" stroke="#FFFFFF" stroke-width="0.8641" stroke-linecap="square" stroke-miterlimit="10" points="
					104.81,-20.26 103.72,-20.26 102.67,-18.31 				"/>
			</g>
			<g>

					<line fill="none" stroke="#FFFFFF" stroke-width="0.8641" stroke-linecap="square" stroke-linejoin="bevel" stroke-miterlimit="10" x1="42.72" y1="-35.51" x2="46.22" y2="-35.51"/>

					<line fill="none" stroke="#FFFFFF" stroke-width="0.8641" stroke-linecap="square" stroke-linejoin="bevel" stroke-miterlimit="10" x1="42.72" y1="-38.17" x2="46.22" y2="-38.17"/>
			</g>
			<g>

					<line fill="none" stroke="#FFFFFF" stroke-width="0.8641" stroke-linecap="square" stroke-linejoin="bevel" stroke-miterlimit="10" x1="73.08" y1="-62.08" x2="73.08" y2="-58.58"/>

					<line fill="none" stroke="#FFFFFF" stroke-width="0.8641" stroke-linecap="square" stroke-linejoin="bevel" stroke-miterlimit="10" x1="71.33" y1="-60.33" x2="74.83" y2="-60.33"/>
			</g>
			<g>

					<line fill="none" stroke="#FFFFFF" stroke-width="0.8641" stroke-linecap="square" stroke-linejoin="bevel" stroke-miterlimit="10" x1="15.79" y1="-15.1" x2="15.79" y2="-11.6"/>

					<line fill="none" stroke="#FFFFFF" stroke-width="0.8641" stroke-linecap="square" stroke-linejoin="bevel" stroke-miterlimit="10" x1="14.55" y1="-12.11" x2="17.02" y2="-14.59"/>

					<line fill="none" stroke="#FFFFFF" stroke-width="0.8641" stroke-linecap="square" stroke-linejoin="bevel" stroke-miterlimit="10" x1="17.02" y1="-12.11" x2="14.55" y2="-14.59"/>

					<line fill="none" stroke="#FFFFFF" stroke-width="0.8641" stroke-linecap="square" stroke-linejoin="bevel" stroke-miterlimit="10" x1="14.04" y1="-13.35" x2="17.54" y2="-13.35"/>
			</g>
			<g>
				<path fill="none" stroke="#FFFFFF" stroke-width="0.8641" stroke-linecap="square" stroke-miterlimit="10" d="M60.68-124.22
					v-15.19c0-0.74,0.6-1.34,1.34-1.34h22.12c0.74,0,1.34,0.6,1.34,1.34v15.19"/>
				<path fill="none" stroke="#FFFFFF" stroke-width="0.8641" stroke-linecap="square" stroke-miterlimit="10" d="M83.86-125.61
					v-13.05c0-0.26-0.21-0.47-0.47-0.47H62.77c-0.26,0-0.47,0.21-0.47,0.47v13.05H83.86z"/>
				<path fill="none" stroke="#FFFFFF" stroke-width="0.8641" stroke-linecap="square" stroke-miterlimit="10" d="M87.38-123.98
					v1.59c0,0.85-0.7,1.55-1.55,1.55h-25.5c-0.85,0-1.55-0.7-1.55-1.55v-1.59H87.38z"/>

					<line fill="none" stroke="#FFFFFF" stroke-width="0.8641" stroke-linecap="square" stroke-miterlimit="10" x1="71.16" y1="-122.41" x2="75.01" y2="-122.41"/>
			</g>
		</g>
		<text transform="matrix(1 0 0 1 72.2178 -11.4268)" fill="#FFFFFF" font-family="'Montserrat-Bold'" font-size="6.5896px">;</text>
	</g>
</pattern>
<g id="Баннер">
	<rect fill="#FF434D" width="1080" height="60"/>
	<g opacity="0.3">
		<defs>
			<rect id="SVGID_1_" opacity="0.3" width="1080" height="60"/>
		</defs>
		<clipPath id="SVGID_2_">
			<use xlink:href="#SVGID_1_"  overflow="visible"/>
		</clipPath>

			<pattern  id="SVGID_3_" xlink:href="#CODE" patternTransform="matrix(0.7071 0.7071 -0.7071 0.7071 -7112.0532 3614.7439)"  opacity="0.3">
		</pattern>
		<polygon clip-path="url(#SVGID_2_)" fill="url(#SVGID_3_)" points="608.5,724.66 -155.18,-39.01 471.5,-664.66 1235.18,99.01
			"/>
	</g>
	<g>
		<g>
			<g>
				<g>
					<g>
						<g>
							<g>
								<g>
									<path fill-rule="evenodd" clip-rule="evenodd" fill="#C63D00" d="M760.34,50H604.89c-2.26,0-4.1-1.85-4.1-4.1V15.55
										c0-2.26,1.85-4.1,4.1-4.1h155.45c2.26,0,4.1,1.85,4.1,4.1V45.9C764.44,48.15,762.6,50,760.34,50z"/>
									<path fill-rule="evenodd" clip-rule="evenodd" fill="#FCCD0F" d="M760.34,47.94H604.89c-2.26,0-4.1-1.85-4.1-4.1V14.1
										c0-2.26,1.85-4.1,4.1-4.1h155.45c2.26,0,4.1,1.85,4.1,4.1v29.74C764.44,46.1,762.6,47.94,760.34,47.94z"/>
									<path fill-rule="evenodd" clip-rule="evenodd" fill="#FFE499" d="M760.34,10H604.89c-2.26,0-4.1,1.85-4.1,4.1v0.81
										c0-2.26,1.84-4.1,4.1-4.1h155.45c2.26,0,4.1,1.85,4.1,4.1V14.1C764.44,11.85,762.6,10,760.34,10z"/>
								</g>
							</g>
						</g>
					</g>
				</g>
			</g>
		</g>
		<g>
			<path fill="#FFFFFF" d="M330.13,26.64c0,3.28-2.46,5.31-6.38,5.31h-2.96V36h-3.4v-14.7h6.36
				C327.67,21.31,330.13,23.34,330.13,26.64z M326.68,26.64c0-1.62-1.05-2.56-3.13-2.56h-2.77v5.1h2.77
				C325.63,29.18,326.68,28.24,326.68,26.64z"/>
			<path fill="#FFFFFF" d="M343.02,31.28h-8.55c0.32,1.41,1.51,2.27,3.23,2.27c1.2,0,2.06-0.36,2.83-1.09l1.74,1.89
				c-1.05,1.2-2.62,1.83-4.66,1.83c-3.91,0-6.45-2.46-6.45-5.82c0-3.38,2.58-5.82,6.03-5.82c3.32,0,5.88,2.23,5.88,5.86
				C343.08,30.65,343.04,31.01,343.02,31.28z M334.43,29.37H340c-0.23-1.43-1.3-2.35-2.77-2.35
				C335.74,27.02,334.67,27.92,334.43,29.37z"/>
			<path fill="#FFFFFF" d="M355.12,29.56V36h-3.07V34.6c-0.61,1.03-1.78,1.58-3.44,1.58c-2.65,0-4.22-1.47-4.22-3.42
				c0-1.99,1.41-3.38,4.85-3.38h2.6c0-1.41-0.84-2.23-2.6-2.23c-1.2,0-2.44,0.4-3.25,1.05l-1.18-2.29c1.24-0.88,3.07-1.37,4.87-1.37
				C353.12,24.54,355.12,26.14,355.12,29.56z M351.84,32.44v-1.15h-2.25c-1.53,0-2.02,0.57-2.02,1.32c0,0.82,0.69,1.37,1.85,1.37
				C350.52,33.97,351.46,33.46,351.84,32.44z"/>
			<path fill="#FFFFFF" d="M368.81,24.71V36h-3.28V27.4h-3.57l-0.1,1.99c-0.17,4.03-0.82,6.85-3.61,6.85c-0.5,0-1.05-0.08-1.7-0.25
				l0.17-2.69c0.17,0.02,0.34,0.04,0.48,0.04c1.55,0,1.68-1.95,1.78-4.09l0.17-4.54H368.81z"/>
			<path fill="#FFFFFF" d="M382.63,32.08c0,2.5-1.85,3.95-5,3.95L371.96,36v-11.3h3.25v3.61h2.86
				C381.03,28.34,382.63,29.71,382.63,32.08z M379.29,32.04c0-1.11-0.69-1.58-1.95-1.6l-2.12-0.02v3.28h2.12
				C378.6,33.72,379.29,33.15,379.29,32.04z"/>
			<path fill="#FFFFFF" d="M384.67,24.71h3.25v4.41h4.91v-4.41h3.28V36h-3.28v-4.22h-4.91V36h-3.25V24.71z"/>
			<path fill="#FFFFFF" d="M409.07,29.56V36H406V34.6c-0.61,1.03-1.79,1.58-3.44,1.58c-2.65,0-4.22-1.47-4.22-3.42
				c0-1.99,1.41-3.38,4.85-3.38h2.6c0-1.41-0.84-2.23-2.6-2.23c-1.2,0-2.44,0.4-3.25,1.05l-1.18-2.29c1.24-0.88,3.07-1.37,4.87-1.37
				C407.07,24.54,409.07,26.14,409.07,29.56z M405.79,32.44v-1.15h-2.25c-1.53,0-2.02,0.57-2.02,1.32c0,0.82,0.69,1.37,1.85,1.37
				C404.47,33.97,405.41,33.46,405.79,32.44z"/>
			<path fill="#FFFFFF" d="M421.96,24.71V36h-2.92v-3.23h-2.42L414.48,36H411l2.58-3.7c-1.55-0.61-2.42-1.78-2.42-3.44
				c0-2.69,2.08-4.16,5.4-4.16H421.96z M414.51,28.97c0,1.13,0.71,1.62,2.08,1.62h2.46v-3.21h-2.42
				C415.26,27.37,414.51,27.84,414.51,28.97z"/>
			<path fill="#FFFFFF" d="M430.13,30.36c0-3.4,2.62-5.82,6.3-5.82c2.37,0,4.24,1.03,5.06,2.88l-2.54,1.36
				c-0.61-1.07-1.51-1.55-2.54-1.55c-1.66,0-2.96,1.15-2.96,3.13c0,1.97,1.3,3.13,2.96,3.13c1.03,0,1.93-0.46,2.54-1.55l2.54,1.39
				c-0.82,1.81-2.69,2.86-5.06,2.86C432.75,36.17,430.13,33.76,430.13,30.36z"/>
			<path fill="#FFFFFF" d="M448.46,31.72h-1.7V36h-3.28v-11.3h3.28v4.39h1.76l3.07-4.39h3.49l-3.95,5.42l4.22,5.88h-3.86
				L448.46,31.72z"/>
			<path fill="#FFFFFF" d="M456.97,24.71h3.25v6.72l5.5-6.72h3V36h-3.25v-6.72L459.99,36h-3.02V24.71z"/>
			<path fill="#FFFFFF" d="M484.54,33.32v5.12h-3.04V36h-7.94v2.44h-3.04v-5.12h0.46c1.55-0.04,1.83-2.25,1.95-4.7l0.15-3.91h9.85
				v8.61H484.54z M474.88,33.32h4.77V27.4h-3.7l-0.06,1.45C475.82,30.76,475.68,32.48,474.88,33.32z"/>
			<path fill="#FFFFFF" d="M491.57,31.72h-1.7V36h-3.28v-11.3h3.28v4.39h1.76l3.07-4.39h3.49l-3.95,5.42l4.22,5.88h-3.86
				L491.57,31.72z"/>
			<path fill="#FFFFFF" d="M509.7,29.56V36h-3.07V34.6c-0.61,1.03-1.78,1.58-3.44,1.58c-2.65,0-4.22-1.47-4.22-3.42
				c0-1.99,1.41-3.38,4.85-3.38h2.6c0-1.41-0.84-2.23-2.6-2.23c-1.2,0-2.44,0.4-3.25,1.05l-1.18-2.29c1.24-0.88,3.07-1.37,4.87-1.37
				C507.7,24.54,509.7,26.14,509.7,29.56z M506.42,32.44v-1.15h-2.25c-1.53,0-2.02,0.57-2.02,1.32c0,0.82,0.69,1.37,1.85,1.37
				C505.1,33.97,506.04,33.46,506.42,32.44z"/>
			<path fill="#FFFFFF" d="M518.01,28.78h5.94v2.62h-5.94V28.78z"/>
			<path fill="#FFFFFF" d="M536.95,31.39c0,2.6-1.91,4.87-6.11,4.87c-2.04,0-4.18-0.57-5.61-1.58l1.34-2.6
				c1.11,0.84,2.65,1.32,4.18,1.32c1.7,0,2.75-0.71,2.75-1.91c0-1.15-0.76-1.91-3.42-1.91h-3.76l0.76-8.27h8.97v2.73h-6.13
				l-0.23,2.79h1.2C535.23,26.83,536.95,28.78,536.95,31.39z"/>
			<path fill="#FFFFFF" d="M538.34,28.66c0-4.85,2.69-7.6,6.3-7.6c3.63,0,6.3,2.75,6.3,7.6s-2.67,7.6-6.3,7.6
				C541.03,36.26,538.34,33.51,538.34,28.66z M547.52,28.66c0-3.34-1.18-4.72-2.88-4.72c-1.68,0-2.86,1.39-2.86,4.72
				s1.18,4.72,2.86,4.72C546.34,33.38,547.52,31.99,547.52,28.66z"/>
			<path fill="#FFFFFF" d="M552.35,25.19c0-2.48,1.51-4.05,3.65-4.05s3.63,1.55,3.63,4.05c0,2.5-1.49,4.05-3.63,4.05
				S552.35,27.67,552.35,25.19z M557.53,25.19c0-1.57-0.61-2.33-1.53-2.33c-0.9,0-1.53,0.78-1.53,2.33c0,1.55,0.63,2.33,1.53,2.33
				C556.93,27.52,557.53,26.77,557.53,25.19z M564.76,21.31h2.5L557.22,36h-2.5L564.76,21.31z M562.34,32.12
				c0-2.48,1.51-4.05,3.63-4.05c2.14,0,3.65,1.57,3.65,4.05c0,2.48-1.51,4.05-3.65,4.05C563.85,36.17,562.34,34.6,562.34,32.12z
				 M567.51,32.12c0-1.55-0.61-2.33-1.53-2.33c-0.9,0-1.53,0.76-1.53,2.33c0,1.57,0.63,2.33,1.53,2.33
				C566.9,34.45,567.51,33.67,567.51,32.12z"/>
		</g>
		<g>
			<path fill="#121212" d="M637.35,23.45v11.2h-2.05v-9.44h-5.81v9.44h-2.05v-11.2H637.35z"/>
			<path fill="#121212" d="M639.97,29.05c0-3.31,2.56-5.76,6.03-5.76s6.03,2.43,6.03,5.76c0,3.33-2.56,5.76-6.03,5.76
				S639.97,32.36,639.97,29.05z M649.94,29.05c0-2.29-1.68-3.94-3.94-3.94s-3.94,1.65-3.94,3.94s1.68,3.94,3.94,3.94
				S649.94,31.34,649.94,29.05z"/>
			<path fill="#121212" d="M665.45,32.89v4.15h-1.92v-2.38h-8.6v2.38H653l0.02-4.15h0.48c1.52-0.06,1.89-2.61,2-5.89l0.13-3.55h8.21
				v9.44H665.45z M656.1,32.89h5.68v-7.68h-4.39l-0.08,1.99C657.22,29.74,656.97,31.99,656.1,32.89z"/>
			<path fill="#121212" d="M677.1,27.43c0,2.46-1.83,3.99-4.77,3.99h-2.53v3.23h-2.08v-11.2h4.61
				C675.27,23.45,677.1,24.95,677.1,27.43z M675,27.43c0-1.41-0.94-2.23-2.77-2.23h-2.43v4.45h2.43
				C674.06,29.66,675,28.84,675,27.43z"/>
			<path fill="#121212" d="M678.69,29.05c0-3.31,2.56-5.76,6.03-5.76s6.03,2.43,6.03,5.76c0,3.33-2.56,5.76-6.03,5.76
				S678.69,32.36,678.69,29.05z M688.66,29.05c0-2.29-1.68-3.94-3.94-3.94s-3.94,1.65-3.94,3.94s1.68,3.94,3.94,3.94
				S688.66,31.34,688.66,29.05z"/>
			<path fill="#121212" d="M693.4,23.45h8.72v1.71h-6.67v2.75h3.31c2.69,0,4.11,1.15,4.11,3.27c0,2.22-1.6,3.47-4.43,3.47h-5.04
				V23.45z M698.33,33.05c1.6,0,2.45-0.62,2.45-1.81c0-1.17-0.82-1.73-2.45-1.73h-2.88v3.54H698.33z"/>
			<path fill="#121212" d="M715.42,23.45v11.2h-2.08v-4.8h-5.79v4.8h-2.08v-11.2h2.08v4.62h5.79v-4.62H715.42z"/>
			<path fill="#121212" d="M727.27,32.91v1.75h-8.4v-11.2h8.18v1.74h-6.1v2.91h5.41v1.71h-5.41v3.09H727.27z"/>
			<path fill="#121212" d="M738.31,32.91v1.75h-8.4v-11.2h8.18v1.74h-6.1v2.91h5.41v1.71h-5.41v3.09H738.31z"/>
		</g>
	</g>
</g>
<g id="Кнопка">
</g>
<g id="Закрыть">
</g>
</svg>
