<svg version="1.1" xmlns="http://www.w3.org/2000/svg" xmlns:xlink="http://www.w3.org/1999/xlink" viewBox="0 0 320 110">
<g id="Баннер">
	<rect fill="#FF434D" width="320" height="110"/>
	<g opacity="0.25">
		<path fill="#FFFFFF" d="M305.01,102.15c-0.03,0.12-0.01,0.23,0.03,0.34l-0.95,0.54l0.46,0.46l0.94-0.41
			c0.18-0.07,0.3-0.13,0.38-0.18c0.08-0.05,0.15-0.1,0.21-0.16c0.13-0.13,0.2-0.28,0.2-0.45c0-0.17-0.07-0.31-0.2-0.44
			s-0.28-0.2-0.45-0.2c-0.17,0-0.32,0.06-0.45,0.2C305.1,101.93,305.04,102.03,305.01,102.15z"/>
		<path fill="#FFFFFF" d="M307.31,101.26c0.17,0,0.33-0.07,0.46-0.2c0.13-0.13,0.2-0.29,0.19-0.45c0-0.17-0.07-0.32-0.2-0.45
			s-0.28-0.19-0.45-0.2c-0.17,0-0.32,0.06-0.46,0.19c-0.13,0.13-0.2,0.28-0.2,0.46c0,0.17,0.06,0.33,0.19,0.45
			C306.98,101.19,307.13,101.26,307.31,101.26z"/>
		<polygon fill="#FFFFFF" points="246.97,110 247.58,110 247.76,109.82 247.94,110 248.19,110 248.77,109.42 249.35,110 250.57,110
			248.77,108.2 		"/>
		<polygon fill="#FFFFFF" points="247.58,110 247.94,110 247.76,109.82 		"/>
		<path fill="#FFFFFF" d="M255.22,104.48c-0.33,0.08-0.73,0.19-1.2,0.66c-0.47,0.47-0.58,0.88-0.66,1.21
			c-0.07,0.28-0.13,0.51-0.44,0.81c-0.31,0.31-0.53,0.36-0.81,0.44c-0.22,0.06-0.48,0.12-0.76,0.3l0.46,0.73
			c0.17-0.11,0.33-0.15,0.52-0.2c0.33-0.08,0.73-0.19,1.21-0.66c0.47-0.47,0.58-0.88,0.66-1.21c0.07-0.28,0.13-0.51,0.44-0.81
			c0.31-0.31,0.53-0.36,0.81-0.44c0.08-0.02,0.17-0.04,0.26-0.07l-0.26-0.82C255.36,104.44,255.29,104.46,255.22,104.48z"/>
		<path fill="#FFFFFF" d="M256.37,108.74c0.07-0.28,0.13-0.51,0.44-0.81c0.31-0.31,0.53-0.37,0.81-0.44
			c0.08-0.02,0.17-0.04,0.26-0.07l-0.26-0.82c-0.07,0.02-0.14,0.04-0.21,0.06c-0.33,0.08-0.73,0.19-1.21,0.66
			c-0.47,0.47-0.58,0.88-0.66,1.21c-0.07,0.28-0.13,0.51-0.44,0.81c-0.31,0.31-0.53,0.37-0.81,0.44c-0.18,0.05-0.39,0.11-0.61,0.23
			h1.97c0.02-0.02,0.04-0.03,0.06-0.06C256.17,109.47,256.28,109.07,256.37,108.74z"/>
		<path fill="#FFFFFF" d="M260.05,109.59l-0.26-0.82c-0.07,0.02-0.14,0.04-0.21,0.06c-0.33,0.08-0.73,0.19-1.21,0.66
			c-0.18,0.18-0.3,0.35-0.39,0.51h1.12c0.25-0.21,0.45-0.27,0.69-0.34C259.88,109.64,259.96,109.62,260.05,109.59z"/>
		<path fill="#FFFFFF" d="M314.64,82.9c-1.55,1.66-1.51,4.31,0.1,5.92l1.59,1.59c0.82,0.82,1.91,1.23,3.01,1.23
			c0.23,0,0.45-0.03,0.67-0.06v-0.87c-1.08,0.21-2.25-0.09-3.07-0.91l-1.59-1.59c-1.28-1.28-1.31-3.39-0.09-4.71l2.31-2.31
			l-0.31-0.31l0.61-0.61l0.31,0.31l0.7-0.7L320,81v-1.22l-1.13-1.13L314.64,82.9z"/>
		<polygon fill="#FFFFFF" points="317.87,80.27 317.25,80.89 317.56,81.19 320,83.63 320,82.41 318.17,80.58 		"/>
		<path fill="#FFFFFF" d="M286.61,93.68c0.32,0.32,0.74,0.48,1.16,0.48s0.84-0.16,1.16-0.48l9.68-9.68c0.64-0.64,0.64-1.68,0-2.32
			l-0.1-0.1l-0.61,0.61l0.1,0.1c0.15,0.15,0.23,0.34,0.23,0.55s-0.08,0.4-0.23,0.55l-9.68,9.68c-0.3,0.3-0.79,0.3-1.1,0
			l-12.93-12.94c-0.15-0.15-0.23-0.34-0.23-0.55c0-0.21,0.08-0.4,0.23-0.55l9.68-9.68c0.3-0.3,0.79-0.3,1.1,0l8,8l0.61-0.61l-8-8
			c-0.62-0.62-1.7-0.62-2.32,0l-9.68,9.68c-0.31,0.31-0.48,0.72-0.48,1.16c0,0.44,0.17,0.85,0.48,1.16L286.61,93.68z"/>

			<rect x="284.61" y="72.42" transform="matrix(0.7071 -0.7071 0.7071 0.7071 31.11 223.2471)" fill="#FFFFFF" width="0.86" height="3.31"/>

			<rect x="287.34" y="75.15" transform="matrix(0.7071 -0.7071 0.7071 0.7071 29.9786 225.9786)" fill="#FFFFFF" width="0.86" height="3.31"/>

			<rect x="283.91" y="75.45" transform="matrix(0.7071 -0.7071 0.7071 0.7071 28.7589 223.6434)" fill="#FFFFFF" width="0.86" height="3.31"/>

			<rect x="286.64" y="78.18" transform="matrix(0.7071 -0.7071 0.7071 0.7071 27.6275 226.3748)" fill="#FFFFFF" width="0.86" height="3.31"/>

			<rect x="283.41" y="78.69" transform="matrix(0.7071 -0.7071 0.7071 0.7071 26.3265 224.2359)" fill="#FFFFFF" width="0.86" height="3.31"/>

			<rect x="286.14" y="81.42" transform="matrix(0.7073 -0.707 0.707 0.7073 25.1652 226.9131)" fill="#FFFFFF" width="0.86" height="3.31"/>

			<rect x="280.39" y="79.4" transform="matrix(0.7071 -0.7071 0.7071 0.7071 24.9376 222.3105)" fill="#FFFFFF" width="0.86" height="3.31"/>

			<rect x="283.12" y="82.13" transform="matrix(0.7071 -0.7071 0.7071 0.7071 23.8062 225.042)" fill="#FFFFFF" width="0.86" height="3.31"/>
		<path fill="#FFFFFF" d="M294.97,78.64c0.17-0.17,0.17-0.44,0-0.61c-0.17-0.17-0.44-0.17-0.61,0c-0.17,0.17-0.17,0.44,0,0.61
			C294.52,78.81,294.8,78.81,294.97,78.64z"/>
		<path fill="#FFFFFF" d="M296.09,79.77c0.17-0.17,0.17-0.44,0-0.61c-0.17-0.17-0.44-0.17-0.61,0c-0.17,0.17-0.17,0.44,0,0.61
			C295.65,79.94,295.92,79.94,296.09,79.77z"/>
		<path fill="#FFFFFF" d="M297.22,80.9c0.17-0.17,0.17-0.44,0-0.61c-0.17-0.17-0.44-0.17-0.61,0c-0.17,0.17-0.17,0.44,0,0.61
			C296.77,81.07,297.05,81.07,297.22,80.9z"/>
		<polygon fill="#FFFFFF" points="303.95,64.02 304.76,63.21 304.14,62.6 303.34,63.41 303.34,64.02 		"/>
		<polygon fill="#FFFFFF" points="301.86,64.88 301.06,65.69 301.67,66.3 302.48,65.49 302.48,64.88 		"/>
		<polygon fill="#FFFFFF" points="303.34,64.27 303.95,64.88 305.09,64.88 305.09,64.02 303.95,64.02 303.34,64.02 		"/>
		<polygon fill="#FFFFFF" points="302.48,64.63 301.86,64.02 300.72,64.02 300.72,64.88 301.86,64.88 302.48,64.88 		"/>
		<polygon fill="#FFFFFF" points="302.48,64.63 302.48,64.88 302.48,65.49 302.48,66.63 303.34,66.63 303.34,65.49 		"/>
		<polygon fill="#FFFFFF" points="303.34,64.27 303.34,64.02 303.34,63.41 303.34,62.27 302.48,62.27 302.48,63.41 		"/>
		<polygon fill="#FFFFFF" points="302.48,64.63 303.34,65.49 304.14,66.3 304.76,65.69 303.95,64.88 303.34,64.27 302.48,63.41
			301.67,62.6 301.06,63.21 301.86,64.02 		"/>
		<path fill="#FFFFFF" d="M274.62,97.68l-1.28-0.9l-4.76-3.36l-1.53-1.08l0.17,1.86l0.53,5.8l0.14,1.56l1.24-0.95l0.5-0.38
			l0.62,1.08l0.43,0.75l0.75-0.43l0.73-0.42l0.73-0.42l0.75-0.43l-0.43-0.75l-0.62-1.08l0.58-0.24L274.62,97.68z M271.35,98.1
			l1.12,1.93l-0.73,0.42l-0.01,0l-0.73,0.42l-1.12-1.93l-1.28,0.98l-0.53-5.8l4.76,3.36L271.35,98.1z"/>

			<rect x="317.14" y="44.5" transform="matrix(0.7071 -0.7071 0.7071 0.7071 61.1371 237.4684)" fill="#FFFFFF" width="0.15" height="0.86"/>
		<path fill="#FFFFFF" d="M314.94,52.43l-0.01-0.01c-1.26-1.26-1.26-3.32,0-4.58l0.66-0.66l-0.61-0.61l-0.66,0.66
			c0,0,0,0.01-0.01,0.01l0.61,0.61l-0.61,0.61l-0.54-0.54c-1.02,1.59-0.84,3.73,0.55,5.12l0.01,0.01c0.8,0.8,1.85,1.2,2.9,1.2
			c0.77,0,1.54-0.22,2.21-0.65l-0.54-0.54l0.61-0.61l0.48,0.48v-0.97l-0.48,0.48C318.26,53.69,316.2,53.69,314.94,52.43z"/>
		<path fill="#FFFFFF" d="M318.19,44.58c0.51-0.49,1.15-0.77,1.81-0.85v-0.86c-0.88,0.09-1.73,0.45-2.42,1.1L318.19,44.58z"/>

			<rect x="315.75" y="45.5" transform="matrix(0.7071 -0.7071 0.7071 0.7071 60.1415 237.056)" fill="#FFFFFF" width="0.94" height="0.86"/>
		<polygon fill="#FFFFFF" points="317.58,43.97 317.58,43.97 317.52,44.03 316.97,44.58 317.58,45.19 320,47.61 320,46.39
			318.19,44.58 		"/>
		<polygon fill="#FFFFFF" points="317.47,45.29 316.86,44.68 315.85,43.67 317.76,41.76 317.15,41.15 314.63,43.67 316.25,45.29
			316.86,45.9 		"/>
		<polygon fill="#FFFFFF" points="314.92,47.84 314.31,47.23 312.69,45.61 310.17,48.14 310.78,48.75 312.69,46.83 313.77,47.91
			314.31,48.45 		"/>
		<polygon fill="#FFFFFF" points="316.2,46.57 315.59,45.96 313.97,44.34 313.35,44.95 314.97,46.57 315.59,47.18 		"/>
		<polygon fill="#FFFFFF" points="319.22,57.19 320,56.41 320,55.19 318.61,56.58 		"/>
		<polygon fill="#FFFFFF" points="318.9,53.05 319.45,53.59 320,54.14 320,52.92 319.52,52.44 		"/>

			<rect x="318.24" y="4.95" transform="matrix(0.7071 -0.7071 0.7071 0.7071 89.4343 226.6727)" fill="#FFFFFF" width="0.15" height="0.86"/>
		<path fill="#FFFFFF" d="M319.29,5.04c0.22-0.21,0.46-0.37,0.71-0.5V3.57c-0.48,0.19-0.93,0.48-1.32,0.85L319.29,5.04z"/>

			<rect x="316.85" y="5.95" transform="matrix(0.7072 -0.707 0.707 0.7072 88.3837 226.2032)" fill="#FFFFFF" width="0.94" height="0.86"/>
		<path fill="#FFFFFF" d="M316.04,12.88l-0.01-0.01c-1.26-1.26-1.26-3.32,0-4.58l0.66-0.66l-0.61-0.61l-0.66,0.66
			c0,0,0,0.01-0.01,0.01l0.61,0.61l-0.61,0.61l-0.54-0.54c-1.02,1.59-0.84,3.73,0.55,5.12l0.01,0.01c0.8,0.8,1.85,1.2,2.9,1.2
			c0.57,0,1.14-0.13,1.67-0.37v-0.97C318.75,14.11,317.11,13.95,316.04,12.88z"/>
		<polygon fill="#FFFFFF" points="318.68,4.42 318.67,4.42 318.61,4.48 318.06,5.03 318.67,5.64 320,6.97 320,5.74 319.29,5.04
			"/>
		<polygon fill="#FFFFFF" points="318.57,5.75 317.96,5.13 316.95,4.13 318.86,2.21 318.25,1.6 315.73,4.13 317.35,5.75
			317.96,6.36 		"/>
		<polygon fill="#FFFFFF" points="316.02,8.29 315.41,7.68 313.79,6.06 311.27,8.59 311.88,9.2 313.79,7.29 314.87,8.36
			315.41,8.91 		"/>
		<polygon fill="#FFFFFF" points="317.29,7.02 316.68,6.41 315.06,4.79 314.45,5.4 316.07,7.02 316.68,7.63 		"/>
		<polygon fill="#FFFFFF" points="320,17.32 320,16.74 319.71,17.03 		"/>
		<path fill="#FFFFFF" d="M227.33,21.28c0.17,0,0.33-0.07,0.46-0.2c0.13-0.13,0.2-0.29,0.19-0.45c0-0.17-0.07-0.32-0.2-0.45
			s-0.28-0.19-0.45-0.2c-0.17,0-0.32,0.06-0.45,0.19c-0.13,0.13-0.2,0.28-0.2,0.46c0,0.17,0.06,0.33,0.19,0.45
			C227.01,21.22,227.16,21.28,227.33,21.28z"/>
		<path fill="#FFFFFF" d="M224.59,23.51l0.94-0.41c0.18-0.07,0.3-0.13,0.38-0.18c0.08-0.05,0.15-0.1,0.21-0.16
			c0.13-0.13,0.2-0.28,0.2-0.45c0-0.17-0.07-0.31-0.2-0.44c-0.13-0.13-0.28-0.2-0.45-0.2c-0.17,0-0.32,0.06-0.45,0.2
			c-0.09,0.09-0.15,0.2-0.18,0.31c-0.03,0.12-0.01,0.23,0.03,0.34l-0.95,0.54L224.59,23.51z"/>
		<path fill="#FFFFFF" d="M179.8,63.35c-0.3,0-0.61,0.06-0.91,0.17c-0.28,0.11-0.56,0.27-0.84,0.47c-0.26,0.19-0.51,0.42-0.76,0.66
			l-1.4,1.4c-0.4,0.4-0.86,0.65-1.39,0.76c-0.52,0.11-1.13,0.02-1.8-0.26l-0.57,0.57c0.28,0.67,0.37,1.28,0.25,1.8
			c-0.11,0.54-0.36,0.99-0.76,1.39l-1.4,1.4c-0.25,0.25-0.47,0.51-0.66,0.76c-0.2,0.27-0.36,0.55-0.47,0.84
			c-0.11,0.3-0.17,0.6-0.17,0.91c0,0.32,0.08,0.65,0.24,0.98l0.19,0.39l0.78-0.38l-0.19-0.39c-0.1-0.2-0.15-0.4-0.15-0.59
			c0-0.21,0.04-0.4,0.12-0.6c0.08-0.21,0.2-0.42,0.36-0.63c0.17-0.22,0.36-0.45,0.58-0.67l1.4-1.4c0.51-0.51,0.85-1.13,0.99-1.82
			c0.1-0.46,0.09-0.96-0.03-1.48c0.52,0.12,1.01,0.13,1.47,0.03c0.7-0.14,1.31-0.48,1.83-1l1.4-1.4c0.22-0.22,0.44-0.41,0.67-0.58
			c0.21-0.16,0.42-0.28,0.63-0.36c0.2-0.08,0.4-0.12,0.6-0.12c0,0,0,0,0,0c0.19,0,0.39,0.05,0.59,0.15l0.39,0.19l0.38-0.78
			l-0.39-0.19C180.46,63.42,180.13,63.35,179.8,63.35C179.81,63.35,179.81,63.35,179.8,63.35z"/>
		<path fill="#FFFFFF" d="M180.35,74.77c-0.52-0.12-1.02-0.13-1.48-0.03c-0.7,0.15-1.31,0.48-1.82,0.99l-1.4,1.4
			c-0.22,0.22-0.44,0.41-0.67,0.58c-0.21,0.16-0.42,0.28-0.63,0.36c-0.2,0.08-0.4,0.12-0.6,0.12c0,0,0,0,0,0
			c-0.19,0-0.39-0.05-0.59-0.15l-0.39-0.19l-0.38,0.78l0.39,0.19c0.32,0.16,0.65,0.24,0.97,0.24c0.3,0.03,0.62-0.06,0.92-0.17
			c0.28-0.11,0.56-0.27,0.84-0.47c0.25-0.19,0.51-0.41,0.76-0.66l1.4-1.4c0.4-0.4,0.85-0.65,1.39-0.76c0.53-0.11,1.14-0.03,1.8,0.25
			l0.57-0.57c-0.28-0.67-0.37-1.28-0.26-1.8c0.11-0.54,0.36-0.99,0.76-1.39l1.4-1.4c0.25-0.25,0.47-0.51,0.66-0.76
			c0.2-0.27,0.36-0.55,0.47-0.84c0.11-0.3,0.17-0.6,0.17-0.91c0-0.32-0.08-0.65-0.24-0.98l-0.19-0.39l-0.78,0.38l0.19,0.39
			c0.1,0.21,0.15,0.41,0.15,0.59c0,0.21-0.04,0.4-0.12,0.6c-0.08,0.21-0.2,0.42-0.36,0.63c-0.16,0.22-0.36,0.44-0.58,0.67l-1.4,1.4
			c-0.52,0.52-0.85,1.13-1,1.83C180.22,73.75,180.23,74.25,180.35,74.77z"/>
		<path fill="#FFFFFF" d="M239.42,45.99l0.78-0.38L240,45.22c-0.1-0.21-0.15-0.41-0.15-0.59c0-0.2,0.04-0.4,0.12-0.6
			c0.08-0.21,0.2-0.42,0.36-0.63c0.17-0.23,0.37-0.45,0.58-0.67l1.4-1.4c0.51-0.51,0.85-1.12,0.99-1.82
			c0.1-0.46,0.09-0.96-0.03-1.48c0.52,0.12,1.01,0.13,1.47,0.03c0.69-0.14,1.31-0.48,1.83-1l1.4-1.4c0.22-0.22,0.44-0.41,0.67-0.58
			c0.21-0.16,0.42-0.28,0.63-0.36c0.2-0.08,0.4-0.12,0.6-0.12c0,0,0.01,0,0.01,0c0.19,0,0.38,0.05,0.58,0.15l0.39,0.19l0.38-0.78
			l-0.39-0.19c-0.32-0.16-0.65-0.24-0.96-0.24c-0.31,0-0.62,0.06-0.92,0.17c-0.29,0.11-0.57,0.27-0.84,0.47
			c-0.26,0.19-0.51,0.41-0.76,0.66l-1.4,1.4c-0.4,0.4-0.86,0.65-1.39,0.76c-0.52,0.11-1.13,0.02-1.8-0.26l-0.57,0.57
			c0.28,0.67,0.37,1.28,0.25,1.8c-0.11,0.54-0.36,0.99-0.76,1.39l-1.4,1.4c-0.25,0.25-0.47,0.5-0.66,0.76
			c-0.2,0.27-0.36,0.56-0.47,0.84c-0.11,0.3-0.17,0.6-0.17,0.91c0,0.32,0.08,0.65,0.24,0.98L239.42,45.99z"/>
		<path fill="#FFFFFF" d="M250.41,45.17c-0.52-0.12-1.02-0.13-1.48-0.03c-0.7,0.15-1.31,0.48-1.82,0.99l-1.39,1.4
			c-0.22,0.22-0.45,0.42-0.67,0.58c-0.21,0.16-0.42,0.28-0.63,0.36c-0.2,0.08-0.4,0.12-0.6,0.12c0,0,0,0,0,0
			c-0.19,0-0.38-0.05-0.59-0.15l-0.39-0.19l-0.38,0.78l0.39,0.19c0.32,0.16,0.65,0.24,0.97,0.24c0.32-0.04,0.62-0.06,0.92-0.17
			c0.29-0.11,0.57-0.27,0.84-0.47c0.25-0.19,0.51-0.41,0.76-0.66l1.4-1.4c0.4-0.4,0.85-0.65,1.39-0.76c0.53-0.11,1.14-0.03,1.8,0.25
			l0.57-0.57c-0.28-0.67-0.37-1.28-0.26-1.8c0.11-0.54,0.36-0.99,0.76-1.39l1.4-1.4c0.25-0.25,0.47-0.5,0.66-0.76
			c0.2-0.27,0.36-0.56,0.47-0.84c0.11-0.3,0.17-0.6,0.17-0.91c0-0.32-0.08-0.65-0.24-0.98l-0.19-0.39l-0.78,0.38l0.19,0.39
			c0.1,0.21,0.15,0.41,0.15,0.59c0,0.2-0.04,0.4-0.12,0.6c-0.08,0.21-0.2,0.42-0.36,0.63c-0.17,0.23-0.36,0.45-0.58,0.67l-1.4,1.4
			c-0.52,0.52-0.85,1.13-1,1.83C250.28,44.16,250.29,44.65,250.41,45.17z"/>
		<path fill="#FFFFFF" d="M253.49,70.6C253.49,70.6,253.49,70.6,253.49,70.6c-0.32,0-0.62,0.06-0.92,0.17
			c-0.29,0.11-0.57,0.27-0.84,0.47c-0.25,0.19-0.51,0.41-0.76,0.66l-1.4,1.4c-0.4,0.4-0.86,0.65-1.39,0.76
			c-0.52,0.11-1.13,0.02-1.8-0.26l-0.57,0.57c0.28,0.67,0.37,1.28,0.25,1.8c-0.11,0.54-0.36,0.99-0.76,1.39l-1.4,1.4
			c-0.25,0.25-0.47,0.5-0.66,0.76c-0.2,0.27-0.36,0.55-0.47,0.84c-0.11,0.29-0.17,0.6-0.17,0.91c0,0.32,0.08,0.65,0.24,0.98
			l0.19,0.39l0.78-0.38l-0.19-0.39c-0.1-0.21-0.15-0.41-0.15-0.59c0-0.2,0.04-0.41,0.12-0.6c0.08-0.21,0.2-0.42,0.36-0.63
			c0.17-0.23,0.36-0.45,0.58-0.67l1.4-1.4c0.51-0.51,0.85-1.12,0.99-1.82c0.1-0.46,0.09-0.96-0.03-1.48
			c0.52,0.12,1.02,0.13,1.48,0.03c0.7-0.14,1.31-0.48,1.83-1l1.4-1.4c0.22-0.22,0.45-0.42,0.67-0.58c0.21-0.16,0.42-0.28,0.63-0.36
			c0.2-0.08,0.4-0.12,0.6-0.12c0,0,0,0,0,0c0.19,0,0.39,0.05,0.59,0.15l0.39,0.19l0.38-0.78l-0.39-0.19
			C254.14,70.67,253.81,70.6,253.49,70.6z"/>
		<path fill="#FFFFFF" d="M254.04,82.02c-0.52-0.12-1.02-0.13-1.48-0.03c-0.7,0.15-1.31,0.48-1.82,0.99l-1.4,1.4
			c-0.21,0.21-0.44,0.41-0.67,0.58c-0.21,0.16-0.42,0.28-0.63,0.36c-0.2,0.08-0.4,0.12-0.6,0.12c0,0,0,0,0,0
			c-0.19,0-0.39-0.05-0.59-0.15l-0.39-0.19l-0.38,0.78l0.39,0.19c0.32,0.16,0.65,0.24,0.97,0.24c0,0,0,0,0.01,0
			c0.31,0,0.61-0.06,0.91-0.17c0.28-0.11,0.57-0.27,0.84-0.47c0.26-0.2,0.52-0.42,0.76-0.66l1.4-1.4c0.4-0.4,0.85-0.65,1.39-0.76
			c0.52-0.11,1.13-0.03,1.8,0.25l0.57-0.57c-0.28-0.67-0.37-1.28-0.26-1.8c0.11-0.53,0.36-0.99,0.76-1.39l1.4-1.4
			c0.25-0.24,0.47-0.5,0.66-0.76c0.2-0.27,0.36-0.56,0.47-0.84c0.11-0.3,0.17-0.6,0.17-0.91c0-0.32-0.08-0.65-0.24-0.98l-0.19-0.39
			l-0.78,0.38l0.19,0.39c0.1,0.21,0.15,0.41,0.15,0.59c0,0.2-0.04,0.4-0.12,0.6c-0.08,0.21-0.2,0.42-0.35,0.63
			c-0.17,0.23-0.37,0.45-0.58,0.67l-1.4,1.4c-0.52,0.52-0.85,1.13-1,1.83C253.91,81,253.92,81.49,254.04,82.02z"/>
		<path fill="#FFFFFF" d="M166.24,39.98c0.82,0.82,1.91,1.23,3,1.23c0.97,0,1.94-0.34,2.73-1l-0.28-0.28l0.61-0.61l0.3,0.3
			l1.87-1.86l-0.3-0.3l-0.31-0.31l-2.3,2.3c-1.32,1.24-3.44,1.2-4.72-0.08l-1.59-1.59c-1.28-1.28-1.31-3.39-0.09-4.71l2.31-2.31
			l-0.31-0.31l0.61-0.61l0.31,0.31l0.7-0.7l6.39,6.39l-0.7,0.7l0.31,0.31l0.3,0.3l1.32-1.31l-7.61-7.61l-4.24,4.25
			c-1.55,1.66-1.51,4.31,0.1,5.92L166.24,39.98z"/>
		<polygon fill="#FFFFFF" points="174.48,36.54 168.09,30.15 167.79,29.85 167.17,30.46 167.48,30.76 173.87,37.15 174.17,37.46
			174.79,36.85 		"/>
		<path fill="#FFFFFF" d="M174.17,37.46l0.3,0.3l1.56,1.56c0.16,0.16,0.25,0.38,0.25,0.61c0,0.23-0.09,0.45-0.25,0.61l-0.64,0.64
			c-0.32,0.33-0.9,0.33-1.22,0l-1.56-1.56l-0.3-0.3l-0.61,0.61l0.28,0.28l1.59,1.59c0.33,0.33,0.76,0.5,1.22,0.5
			c0.46,0,0.9-0.18,1.22-0.5l0.64-0.64c0.33-0.33,0.5-0.76,0.5-1.22c0-0.46-0.18-0.9-0.5-1.22l-1.56-1.56l-0.3-0.3L174.17,37.46z"/>
		<path fill="#FFFFFF" d="M172.34,28.46c0.33-0.08,0.73-0.19,1.21-0.66s0.58-0.88,0.66-1.21c0.07-0.28,0.13-0.51,0.44-0.81
			c0.31-0.31,0.53-0.36,0.81-0.44c0.08-0.02,0.17-0.04,0.26-0.07l-0.26-0.82c-0.07,0.02-0.14,0.04-0.21,0.06
			c-0.33,0.08-0.73,0.19-1.21,0.66c-0.47,0.47-0.58,0.88-0.66,1.21c-0.07,0.28-0.13,0.51-0.44,0.81c-0.31,0.31-0.53,0.37-0.81,0.44
			c-0.22,0.06-0.48,0.12-0.76,0.3l0.46,0.73C172,28.55,172.15,28.51,172.34,28.46z"/>
		<path fill="#FFFFFF" d="M175.12,29.36c-0.31,0.31-0.53,0.37-0.81,0.44c-0.22,0.06-0.48,0.12-0.76,0.3l0.46,0.73
			c0.17-0.11,0.33-0.15,0.52-0.2c0.33-0.08,0.73-0.19,1.21-0.66c0.47-0.47,0.58-0.88,0.66-1.21c0.07-0.28,0.13-0.51,0.44-0.81
			s0.53-0.37,0.81-0.44c0.08-0.02,0.17-0.04,0.25-0.07l-0.26-0.82c-0.07,0.02-0.14,0.04-0.21,0.06c-0.33,0.08-0.73,0.19-1.21,0.66
			s-0.58,0.88-0.66,1.21C175.48,28.83,175.42,29.05,175.12,29.36z"/>
		<path fill="#FFFFFF" d="M177.29,31.54c-0.31,0.31-0.53,0.36-0.81,0.44c-0.22,0.06-0.48,0.12-0.76,0.3l0.46,0.73
			c0.17-0.11,0.33-0.15,0.52-0.2c0.33-0.08,0.73-0.19,1.21-0.66c0.47-0.47,0.58-0.88,0.66-1.21c0.07-0.28,0.13-0.51,0.44-0.81
			c0.31-0.31,0.53-0.36,0.81-0.44c0.08-0.02,0.17-0.04,0.26-0.07l-0.26-0.82c-0.07,0.02-0.14,0.04-0.21,0.06
			c-0.33,0.08-0.73,0.19-1.2,0.66c-0.47,0.47-0.58,0.88-0.66,1.21C177.66,31.01,177.6,31.23,177.29,31.54z"/>
		<path fill="#FFFFFF" d="M234.76,8.85l1.59,1.59c0.82,0.82,1.91,1.23,3,1.23c0.97,0,1.94-0.34,2.73-1l-0.28-0.28l0.61-0.61l0.3,0.3
			l1.87-1.86l-0.3-0.3l-0.31-0.31l-2.3,2.3c-1.32,1.23-3.44,1.2-4.71-0.08l-1.59-1.59c-1.28-1.28-1.31-3.39-0.09-4.71l2.31-2.31
			l-0.31-0.31l0.61-0.61l0.31,0.31L238.81,0h-1.22l-2.92,2.93C233.11,4.59,233.16,7.24,234.76,8.85z"/>
		<polygon fill="#FFFFFF" points="244.59,6.99 244.89,7.3 245.2,7.6 246.51,6.29 240.22,0 239,0 245.29,6.29 		"/>
		<polygon fill="#FFFFFF" points="244.59,6.99 238.2,0.61 237.89,0.3 237.28,0.91 237.59,1.22 243.97,7.6 244.28,7.91 244.89,7.3
			"/>
		<path fill="#FFFFFF" d="M244.28,7.91l0.3,0.3l1.56,1.56c0.34,0.34,0.34,0.88,0,1.22l-0.64,0.64c-0.33,0.33-0.88,0.34-1.22,0
			l-1.56-1.56l-0.3-0.3l-0.61,0.61l0.28,0.28l1.59,1.59c0.34,0.34,0.78,0.5,1.22,0.5s0.89-0.17,1.22-0.5l0.64-0.64
			c0.67-0.67,0.67-1.77,0-2.44L245.2,7.6l-0.3-0.3L244.28,7.91z"/>
		<path fill="#FFFFFF" d="M243.65,0.56l0.46,0.73c0.17-0.11,0.33-0.15,0.52-0.2c0.33-0.08,0.73-0.19,1.21-0.66
			c0.15-0.15,0.25-0.29,0.34-0.43h-1.17c-0.21,0.15-0.39,0.2-0.6,0.25C244.19,0.31,243.94,0.38,243.65,0.56z"/>
		<path fill="#FFFFFF" d="M247.4,1.99c-0.31,0.31-0.53,0.37-0.81,0.44c-0.22,0.06-0.48,0.12-0.76,0.3l0.46,0.73
			c0.17-0.11,0.33-0.15,0.52-0.2c0.33-0.08,0.73-0.19,1.21-0.66c0.47-0.47,0.58-0.88,0.66-1.21c0.07-0.28,0.13-0.51,0.44-0.81
			c0.31-0.31,0.53-0.37,0.81-0.44c0.08-0.02,0.17-0.04,0.26-0.07L250.16,0h-1.68c-0.45,0.46-0.56,0.86-0.64,1.18
			C247.77,1.46,247.71,1.69,247.4,1.99z"/>
		<path fill="#FFFFFF" d="M206.64,13.71c0.32,0.32,0.74,0.48,1.16,0.48s0.84-0.16,1.16-0.48l9.68-9.68c0.64-0.64,0.64-1.68,0-2.32
			l-0.1-0.1l-0.61,0.61l0.1,0.1c0.15,0.14,0.23,0.34,0.23,0.55c0,0.21-0.08,0.4-0.23,0.55l-9.68,9.68c-0.3,0.3-0.79,0.3-1.1,0
			L194.31,0.16c-0.05-0.05-0.08-0.11-0.11-0.16h-0.93c0.07,0.28,0.21,0.55,0.43,0.77L206.64,13.71z"/>
		<polygon fill="#FFFFFF" points="208.57,0.73 207.85,0 206.62,0 207.96,1.34 		"/>
		<polygon fill="#FFFFFF" points="205.34,1.23 204.11,0 202.89,0 204.73,1.84 		"/>

			<rect x="206.17" y="1.44" transform="matrix(0.7071 -0.7071 0.7071 0.7071 58.3216 146.9944)" fill="#FFFFFF" width="0.86" height="3.31"/>
		<polygon fill="#FFFFFF" points="201.71,2.55 202.32,1.94 200.38,0 199.59,0 199.37,0.22 		"/>

			<rect x="203.15" y="2.16" transform="matrix(0.7071 -0.7071 0.7071 0.7071 56.9324 145.0683)" fill="#FFFFFF" width="0.86" height="3.31"/>
		<path fill="#FFFFFF" d="M216.63,0.31c-0.17,0.17-0.17,0.44,0,0.61s0.44,0.17,0.61,0c0.17-0.17,0.17-0.44,0-0.61
			C217.08,0.14,216.8,0.14,216.63,0.31z"/>
		<path fill="#FFFFFF" d="M213.94,87.44c0.32,0.32,0.74,0.48,1.16,0.48s0.84-0.16,1.16-0.48l9.68-9.68c0.64-0.64,0.64-1.68,0-2.32
			l-0.1-0.1l-0.61,0.61l0.1,0.1c0.3,0.3,0.3,0.79,0,1.1l-9.68,9.68c-0.3,0.3-0.79,0.3-1.1,0l-12.93-12.94
			c-0.15-0.15-0.23-0.34-0.23-0.55c0-0.21,0.08-0.4,0.23-0.55l9.68-9.68c0.3-0.3,0.79-0.3,1.1,0l8,8L221,70.5l-8-8
			c-0.64-0.64-1.68-0.64-2.32,0L201,72.19c-0.31,0.31-0.48,0.72-0.48,1.16c0,0.44,0.17,0.85,0.48,1.16L213.94,87.44z"/>

			<rect x="211.93" y="66.18" transform="matrix(0.7071 -0.7071 0.7071 0.7071 14.237 170.0296)" fill="#FFFFFF" width="0.86" height="3.31"/>

			<rect x="214.66" y="68.91" transform="matrix(0.7071 -0.7071 0.7071 0.7071 13.1056 172.761)" fill="#FFFFFF" width="0.86" height="3.31"/>

			<rect x="211.23" y="69.21" transform="matrix(0.7071 -0.7071 0.7071 0.7071 11.8859 170.4258)" fill="#FFFFFF" width="0.86" height="3.31"/>

			<rect x="213.96" y="71.94" transform="matrix(0.7071 -0.7071 0.7071 0.7071 10.7546 173.1576)" fill="#FFFFFF" width="0.86" height="3.31"/>

			<rect x="210.73" y="72.44" transform="matrix(0.7071 -0.7071 0.7071 0.7071 9.4535 171.0183)" fill="#FFFFFF" width="0.86" height="3.31"/>

			<rect x="213.46" y="75.18" transform="matrix(0.7071 -0.7071 0.7071 0.7071 8.3224 173.7505)" fill="#FFFFFF" width="0.86" height="3.31"/>

			<rect x="207.71" y="73.16" transform="matrix(0.7071 -0.7071 0.7071 0.7071 8.0646 169.093)" fill="#FFFFFF" width="0.86" height="3.31"/>

			<rect x="210.44" y="75.89" transform="matrix(0.7071 -0.7071 0.7071 0.7071 6.9332 171.8244)" fill="#FFFFFF" width="0.86" height="3.31"/>
		<path fill="#FFFFFF" d="M222.29,72.4c0.17-0.17,0.17-0.44,0-0.61c-0.17-0.17-0.44-0.17-0.61,0s-0.17,0.44,0,0.61
			C221.85,72.57,222.12,72.57,222.29,72.4z"/>
		<path fill="#FFFFFF" d="M223.42,73.53c0.17-0.17,0.17-0.44,0-0.61c-0.17-0.17-0.44-0.17-0.61,0c-0.17,0.17-0.17,0.44,0,0.61
			C222.97,73.7,223.25,73.7,223.42,73.53z"/>
		<path fill="#FFFFFF" d="M224.54,74.66c0.17-0.17,0.17-0.44,0-0.61c-0.17-0.17-0.44-0.17-0.61,0c-0.17,0.17-0.17,0.44,0,0.61
			S224.37,74.82,224.54,74.66z"/>

			<rect x="262.08" y="23.75" transform="matrix(0.707 -0.7072 0.7072 0.707 58.5767 193.2494)" fill="#FFFFFF" width="0.86" height="4.36"/>

			<rect x="263.95" y="21.87" transform="matrix(0.7072 -0.707 0.707 0.7072 60.4017 193.963)" fill="#FFFFFF" width="0.86" height="4.36"/>
		<polygon fill="#FFFFFF" points="268.12,61.4 268.92,60.6 268.31,59.99 267.5,60.79 267.5,61.4 		"/>
		<polygon fill="#FFFFFF" points="266.03,62.27 265.22,63.07 265.84,63.68 266.64,62.88 266.64,62.27 		"/>
		<polygon fill="#FFFFFF" points="266.64,62.01 266.03,61.4 264.89,61.4 264.89,62.27 266.03,62.27 266.64,62.27 		"/>
		<polygon fill="#FFFFFF" points="267.5,61.66 268.12,62.27 269.25,62.27 269.25,61.4 268.12,61.4 267.5,61.4 		"/>
		<polygon fill="#FFFFFF" points="267.5,61.66 267.5,61.4 267.5,60.79 267.5,59.65 266.64,59.65 266.64,60.79 		"/>
		<polygon fill="#FFFFFF" points="266.64,62.01 266.64,62.27 266.64,62.88 266.64,64.02 267.5,64.02 267.5,62.88 		"/>
		<polygon fill="#FFFFFF" points="267.5,61.66 266.64,60.79 265.84,59.99 265.22,60.6 266.03,61.4 266.64,62.01 267.5,62.88
			268.31,63.68 268.92,63.07 268.12,62.27 		"/>
		<polygon fill="#FFFFFF" points="281.62,44.43 280.66,42.32 282.63,43.27 283.01,42.49 279.95,41.02 279.37,41.59 280.83,44.79
			"/>
		<polygon fill="#FFFFFF" points="284.12,48.08 287.32,49.53 287.89,48.95 286.42,45.9 285.64,46.27 286.59,48.25 284.48,47.29
			"/>

			<rect x="280.15" y="44.79" transform="matrix(0.8989 -0.4382 0.4382 0.8989 8.8654 128.8727)" fill="#FFFFFF" width="7.06" height="0.86"/>
		<polygon fill="#FFFFFF" points="229.55,91.42 231.01,94.61 231.79,94.25 230.83,92.14 232.81,93.09 233.18,92.31 230.13,90.85
			"/>
		<polygon fill="#FFFFFF" points="235.82,96.1 236.76,98.08 234.65,97.12 234.3,97.9 237.49,99.36 238.06,98.78 236.6,95.73 		"/>

			<rect x="230.33" y="94.62" transform="matrix(0.8989 -0.4382 0.4382 0.8989 -18.0045 112.0783)" fill="#FFFFFF" width="7.06" height="0.86"/>
		<path fill="#FFFFFF" d="M298.35,30.96l0.14,1.56l1.24-0.95l0.5-0.38l0.62,1.08l0.43,0.75l0.75-0.43l0.73-0.42l0.73-0.42l0.75-0.43
			l-0.43-0.75l-0.62-1.08l0.58-0.24l1.45-0.6l-1.28-0.9l-4.76-3.36l-1.53-1.08l0.17,1.86L298.35,30.96z M303.45,28.43l-1.49,0.62
			l1.12,1.93l-0.73,0.42l-0.01,0l-0.73,0.42l-1.12-1.93l-1.28,0.98l-0.53-5.8L303.45,28.43z"/>
		<path fill="#FFFFFF" d="M187.77,20.03l0.14,1.56l1.24-0.95l0.5-0.38l0.62,1.08l0.43,0.75l0.75-0.43l0.73-0.42l0.73-0.42l0.75-0.43
			l-0.43-0.75l-0.62-1.08l0.58-0.24l1.45-0.6l-1.28-0.9l-4.76-3.36l-1.53-1.08l0.17,1.86L187.77,20.03z M192.87,17.51l-1.49,0.62
			l1.12,1.93l-0.73,0.42l-0.01,0l-0.73,0.42l-1.12-1.93l-1.28,0.98l-0.53-5.8L192.87,17.51z"/>

			<rect x="211.44" y="40.84" transform="matrix(0.7071 -0.7071 0.7071 0.7071 32.8848 161.9301)" fill="#FFFFFF" width="0.94" height="0.86"/>

			<rect x="207.63" y="34.64" transform="matrix(0.7071 -0.7071 0.7071 0.7071 36.0305 157.1295)" fill="#FFFFFF" width="0.15" height="0.86"/>

			<rect x="212.83" y="39.84" transform="matrix(0.7069 -0.7074 0.7074 0.7069 33.9231 162.405)" fill="#FFFFFF" width="0.15" height="0.86"/>
		<path fill="#FFFFFF" d="M204.79,38.59l-0.54-0.54c-0.42,0.65-0.65,1.41-0.65,2.21c0,1.1,0.43,2.13,1.2,2.9l0.01,0.01
			c0.8,0.8,1.85,1.2,2.9,1.2c0.77,0,1.54-0.22,2.21-0.65l-0.54-0.54l0.61-0.61l0.61,0.61c0,0,0.01,0,0.01-0.01l0.66-0.66l-0.61-0.61
			l-0.66,0.66c-1.26,1.26-3.32,1.26-4.58,0l-0.01-0.01c-0.61-0.61-0.95-1.42-0.95-2.29s0.34-1.68,0.95-2.29l1.93-1.93l-0.61-0.61
			l-0.66,0.66l0.61,0.61l-0.61,0.61l-0.61-0.61l-0.66,0.66c0,0,0,0.01-0.01,0.01l0.61,0.61L204.79,38.59z"/>
		<path fill="#FFFFFF" d="M210.9,33.83c0.87,0,1.68,0.34,2.3,0.96c1.24,1.24,1.26,3.25,0.05,4.52l0.61,0.61
			c1.16-1.21,1.44-2.97,0.81-4.45l-0.78,0.23l-0.25-0.83l0.58-0.17c-0.13-0.18-0.27-0.37-0.44-0.53c-0.16-0.16-0.34-0.3-0.52-0.43
			l-0.18,0.59l-0.83-0.25l0.23-0.78c-0.5-0.21-1.05-0.33-1.61-0.33c-1.07,0-2.07,0.41-2.83,1.14l0.61,0.61
			C209.28,34.15,210.06,33.83,210.9,33.83z"/>
		<polygon fill="#FFFFFF" points="212.65,39.92 213.26,40.53 213.81,39.98 213.87,39.92 213.87,39.91 213.26,39.3 208.68,34.72
			208.07,34.11 208.06,34.1 208,34.16 207.45,34.71 208.06,35.32 		"/>
		<polygon fill="#FFFFFF" points="207.95,35.43 207.34,34.82 206.33,33.81 208.25,31.9 207.63,31.28 205.11,33.81 206.73,35.43
			207.34,36.04 		"/>
		<polygon fill="#FFFFFF" points="203.17,36.97 204.25,38.05 204.79,38.59 205.4,37.98 204.79,37.37 203.17,35.75 200.65,38.27
			201.26,38.88 		"/>
		<polygon fill="#FFFFFF" points="206.68,36.7 206.07,36.09 204.45,34.47 203.84,35.08 205.46,36.7 206.07,37.31 		"/>
		<polygon fill="#FFFFFF" points="209.39,43.18 209.93,43.72 211.01,44.8 209.09,46.71 209.71,47.32 212.23,44.8 210.61,43.18
			210,42.57 		"/>
		<polygon fill="#FFFFFF" points="211.94,40.63 212.55,41.24 214.17,42.86 216.69,40.34 216.08,39.73 214.17,41.64 213.16,40.63
			212.55,40.02 		"/>
		<polygon fill="#FFFFFF" points="210.66,41.91 211.27,42.52 212.89,44.14 213.5,43.53 211.88,41.91 211.27,41.3 		"/>

			<rect x="210.68" y="34.85" transform="matrix(0.7071 -0.7071 0.7071 0.7071 36.9428 159.7565)" fill="#FFFFFF" width="1.28" height="0.86"/>

			<rect x="212.05" y="36.23" transform="matrix(0.7071 -0.7071 0.7071 0.7071 36.3733 161.1315)" fill="#FFFFFF" width="1.28" height="0.86"/>
		<polygon fill="#FFFFFF" points="213.11,34.32 213.28,33.73 213.94,31.53 212.68,30.28 212.07,30.89 212.96,31.78 212.51,33.29
			212.28,34.08 		"/>
		<polygon fill="#FFFFFF" points="213.9,35.7 214.68,35.46 216.19,35.01 217.09,35.91 217.7,35.29 216.44,34.04 214.24,34.69
			213.65,34.87 		"/>

			<rect x="214.88" y="108.32" transform="matrix(0.7071 -0.7071 0.7071 0.7071 -13.9392 183.8571)" fill="#FFFFFF" width="0.15" height="0.86"/>
		<polygon fill="#FFFFFF" points="213.98,109.11 213.32,109.78 213.54,110 214.31,110 214.59,109.72 		"/>
		<path fill="#FFFFFF" d="M221.15,109.38l-0.25-0.83l0.59-0.17c-0.13-0.19-0.27-0.37-0.44-0.53c-0.16-0.16-0.34-0.3-0.52-0.43
			l-0.17,0.59l-0.83-0.25l0.23-0.78c-1.47-0.63-3.23-0.35-4.45,0.81l0.61,0.61c0.62-0.59,1.42-0.89,2.22-0.89
			c0.83,0,1.67,0.32,2.31,0.96c0.44,0.44,0.71,0.97,0.85,1.53h0.89c-0.05-0.29-0.14-0.58-0.26-0.85L221.15,109.38z"/>
		<polygon fill="#FFFFFF" points="215.31,107.79 215.31,107.78 215.25,107.84 214.7,108.4 215.31,109.01 216.3,110 217.52,110
			215.93,108.4 		"/>
		<polygon fill="#FFFFFF" points="215.2,109.11 214.59,108.5 213.58,107.49 215.49,105.58 214.88,104.97 212.36,107.49
			213.98,109.11 214.59,109.72 		"/>
		<polygon fill="#FFFFFF" points="209.85,110 210.99,110 210.42,109.43 		"/>
		<polygon fill="#FFFFFF" points="211.7,108.15 211.09,108.77 212.32,110 213.54,110 213.32,109.78 		"/>

			<rect x="217.93" y="108.54" transform="matrix(0.7071 -0.7071 0.7071 0.7071 -13.0366 186.4647)" fill="#FFFFFF" width="1.28" height="0.86"/>
		<polygon fill="#FFFFFF" points="219.67,110 220.5,110 220.09,109.59 		"/>
		<polygon fill="#FFFFFF" points="220.36,108.01 220.53,107.42 221.19,105.22 219.93,103.96 219.32,104.57 220.21,105.46
			219.76,106.98 219.53,107.76 		"/>
		<polygon fill="#FFFFFF" points="221.15,109.38 221.93,109.15 223.44,108.7 224.34,109.59 224.95,108.98 223.69,107.72
			221.49,108.38 220.9,108.55 		"/>

			<rect x="192.02" y="53.34" transform="matrix(0.7071 -0.7071 0.7071 0.7071 17.1053 152.345)" fill="#FFFFFF" width="0.86" height="4.37"/>

			<rect x="193.9" y="51.46" transform="matrix(0.707 -0.7072 0.7072 0.707 18.9996 153.1511)" fill="#FFFFFF" width="0.86" height="4.36"/>

			<rect x="228.43" y="58.7" transform="matrix(0.7071 -0.7071 0.7071 0.7071 25.3477 179.4639)" fill="#FFFFFF" width="1.75" height="0.86"/>

			<rect x="230.28" y="56.85" transform="matrix(0.7071 -0.7071 0.7071 0.7071 27.1968 180.2299)" fill="#FFFFFF" width="1.75" height="0.86"/>
		<polygon fill="#FFFFFF" points="231.47,60.06 232.08,59.45 230.84,58.21 230.23,57.6 228.99,56.36 228.38,56.97 229.62,58.21
			230.23,58.82 		"/>
		<polygon fill="#FFFFFF" points="157.74,49.06 156.93,49.87 156.93,50.48 157.54,50.48 158.35,49.68 		"/>
		<polygon fill="#FFFFFF" points="155.46,51.34 154.65,52.15 155.26,52.76 156.07,51.96 156.07,51.34 		"/>
		<polygon fill="#FFFFFF" points="156.93,50.73 157.54,51.34 158.68,51.34 158.68,50.48 157.54,50.48 156.93,50.48 		"/>
		<polygon fill="#FFFFFF" points="156.07,51.09 155.46,50.48 154.32,50.48 154.32,51.34 155.46,51.34 156.07,51.34 		"/>
		<polygon fill="#FFFFFF" points="156.93,50.73 156.93,50.48 156.93,49.87 156.93,48.73 156.07,48.73 156.07,49.87 		"/>
		<polygon fill="#FFFFFF" points="156.07,51.09 156.07,51.34 156.07,51.96 156.07,53.09 156.93,53.09 156.93,51.96 		"/>
		<polygon fill="#FFFFFF" points="156.93,50.73 156.07,49.87 155.26,49.06 154.65,49.68 155.46,50.48 156.07,51.09 156.93,51.96
			157.74,52.76 158.35,52.15 157.54,51.34 		"/>
		<polygon fill="#FFFFFF" points="267.08,4.43 271.51,0 270.29,0 266.47,3.82 		"/>
		<path fill="#FFFFFF" d="M294.88,10.11c0,0.25-0.09,0.47-0.27,0.64l-10.6,10.6l0.61,0.61l10.6-10.6c0.69-0.69,0.69-1.82,0-2.51
			L286.37,0h-1.22l9.47,9.47C294.78,9.64,294.88,9.87,294.88,10.11z"/>
		<path fill="#FFFFFF" d="M284.01,20.28l9.53-9.53c0.17-0.17,0.26-0.4,0.26-0.64c0-0.24-0.09-0.47-0.26-0.63L284.06,0h-1.24
			l10.11,10.14l-8.92,8.92L269.38,4.43L273.84,0h-1.25l-4.43,4.43L284.01,20.28z"/>
		<path fill="#FFFFFF" d="M267.08,4.43l-0.61-0.61l-1.34-1.34l-1.43,1.43c-0.77,0.77-0.77,2.03,0,2.8l18.03,18.03
			c0.39,0.39,0.89,0.58,1.4,0.58s1.01-0.19,1.4-0.58l1.43-1.43l-1.34-1.34l-0.61-0.61L267.08,4.43z M283.92,24.14
			c-0.44,0.44-1.14,0.44-1.58,0L264.3,6.1c-0.44-0.44-0.44-1.14,0-1.58l0.82-0.82l19.61,19.61L283.92,24.14z"/>

			<rect x="273.69" y="11.96" transform="matrix(0.7071 -0.7071 0.7071 0.7071 70.168 198.0297)" fill="#FFFFFF" width="0.86" height="4.71"/>
		<path fill="#FFFFFF" d="M197.74,91.34c0.17,0,0.33-0.07,0.46-0.2c0.13-0.13,0.2-0.29,0.19-0.45c-0.01-0.17-0.07-0.32-0.2-0.45
			c-0.13-0.13-0.28-0.19-0.45-0.2c-0.17,0-0.32,0.06-0.46,0.19c-0.13,0.13-0.2,0.28-0.2,0.46c0,0.17,0.06,0.32,0.19,0.45
			C197.41,91.28,197.57,91.34,197.74,91.34z"/>
		<path fill="#FFFFFF" d="M195.62,91.92c-0.09,0.09-0.15,0.2-0.18,0.31s-0.01,0.23,0.03,0.33l-0.95,0.54l0.46,0.46l0.94-0.41
			c0.18-0.07,0.3-0.13,0.38-0.18c0.08-0.05,0.15-0.1,0.21-0.16c0.13-0.13,0.2-0.28,0.2-0.45c0-0.17-0.07-0.31-0.2-0.44
			c-0.13-0.13-0.28-0.2-0.45-0.2C195.91,91.72,195.76,91.79,195.62,91.92z"/>
		<path fill="#FFFFFF" d="M135.54,102.05l-4.24,4.25c-0.95,1.02-1.3,2.41-1.05,3.7h0.88c-0.25-1.08,0-2.26,0.79-3.1l2.31-2.31
			l-0.31-0.31l0.61-0.61l0.31,0.31l0.7-0.7l6.39,6.39l-0.34,0.34h1.22l0.34-0.34L135.54,102.05z"/>
		<polygon fill="#FFFFFF" points="134.53,103.67 133.92,104.28 134.22,104.59 139.64,110 140.86,110 134.83,103.97 		"/>
		<path fill="#FFFFFF" d="M140.96,100.41c0.07-0.28,0.13-0.51,0.44-0.81c0.31-0.31,0.53-0.37,0.81-0.44
			c0.08-0.02,0.17-0.04,0.25-0.07l-0.26-0.82c-0.07,0.02-0.14,0.04-0.21,0.06c-0.33,0.08-0.73,0.19-1.21,0.66
			c-0.47,0.47-0.58,0.88-0.66,1.21c-0.07,0.28-0.13,0.51-0.44,0.81c-0.31,0.31-0.53,0.36-0.81,0.44c-0.22,0.06-0.48,0.12-0.76,0.3
			l0.46,0.73c0.17-0.11,0.33-0.15,0.52-0.2c0.33-0.08,0.73-0.19,1.21-0.66C140.77,101.14,140.87,100.74,140.96,100.41z"/>
		<path fill="#FFFFFF" d="M143.13,102.59c0.07-0.28,0.13-0.51,0.44-0.81s0.53-0.36,0.81-0.44c0.08-0.02,0.17-0.04,0.26-0.07
			l-0.26-0.82c-0.07,0.02-0.14,0.04-0.21,0.06c-0.33,0.08-0.73,0.19-1.21,0.66c-0.47,0.47-0.58,0.88-0.66,1.21
			c-0.07,0.28-0.13,0.51-0.44,0.81s-0.53,0.37-0.81,0.44c-0.22,0.06-0.48,0.12-0.76,0.3l0.46,0.73c0.17-0.11,0.33-0.15,0.52-0.2
			c0.33-0.08,0.73-0.19,1.21-0.66S143.05,102.91,143.13,102.59z"/>
		<path fill="#FFFFFF" d="M144.04,105.36c-0.31,0.31-0.53,0.37-0.81,0.44c-0.22,0.06-0.47,0.12-0.76,0.3l0.46,0.73
			c0.17-0.11,0.33-0.15,0.52-0.2c0.33-0.08,0.73-0.19,1.21-0.66c0.47-0.47,0.58-0.88,0.66-1.21c0.07-0.28,0.13-0.51,0.44-0.81
			c0.31-0.31,0.53-0.37,0.81-0.44c0.08-0.02,0.17-0.04,0.26-0.07l-0.26-0.82c-0.07,0.02-0.14,0.04-0.21,0.06
			c-0.33,0.08-0.73,0.19-1.21,0.66c-0.47,0.47-0.58,0.88-0.66,1.21C144.4,104.83,144.34,105.05,144.04,105.36z"/>
		<path fill="#FFFFFF" d="M115.75,106.23c0-0.44-0.17-0.85-0.48-1.16l-0.1-0.1l-0.61,0.61l0.1,0.11c0.3,0.3,0.3,0.79,0,1.09
			l-3.22,3.22h1.22l2.61-2.61C115.58,107.08,115.75,106.67,115.75,106.23z"/>
		<path fill="#FFFFFF" d="M90.72,102.98c0-0.21,0.08-0.4,0.23-0.55l9.68-9.68c0.3-0.3,0.79-0.3,1.09,0l8,8l0.61-0.61l-8-8
			c-0.62-0.62-1.7-0.62-2.32,0l-9.68,9.68c-0.31,0.31-0.48,0.72-0.48,1.16s0.17,0.85,0.48,1.16L96.2,110h1.22l-6.47-6.47
			C90.8,103.38,90.72,103.19,90.72,102.98z"/>

			<rect x="101.27" y="95.81" transform="matrix(0.7071 -0.7071 0.7071 0.7071 -39.1297 100.4585)" fill="#FFFFFF" width="0.86" height="3.31"/>

			<rect x="104" y="98.54" transform="matrix(0.7071 -0.7071 0.7071 0.7071 -40.2611 103.1899)" fill="#FFFFFF" width="0.86" height="3.31"/>

			<rect x="100.57" y="98.85" transform="matrix(0.7071 -0.7071 0.7071 0.7071 -41.4808 100.8547)" fill="#FFFFFF" width="0.86" height="3.31"/>

			<rect x="103.3" y="101.58" transform="matrix(0.7071 -0.7071 0.7071 0.7071 -42.6122 103.5862)" fill="#FFFFFF" width="0.86" height="3.31"/>

			<rect x="100.07" y="102.08" transform="matrix(0.7071 -0.7071 0.7071 0.7071 -43.9132 101.4472)" fill="#FFFFFF" width="0.86" height="3.31"/>

			<rect x="102.8" y="104.81" transform="matrix(0.7071 -0.7071 0.7071 0.7071 -45.0446 104.1787)" fill="#FFFFFF" width="0.86" height="3.31"/>

			<rect x="97.05" y="102.79" transform="matrix(0.7071 -0.7071 0.7071 0.7071 -45.3024 99.5212)" fill="#FFFFFF" width="0.86" height="3.31"/>

			<rect x="99.78" y="105.52" transform="matrix(0.7071 -0.7071 0.7071 0.7071 -46.4338 102.2526)" fill="#FFFFFF" width="0.86" height="3.31"/>
		<circle fill="#FFFFFF" cx="111.32" cy="101.73" r="0.43"/>
		<path fill="#FFFFFF" d="M112.14,103.16c0.17,0.17,0.44,0.17,0.61,0c0.17-0.17,0.17-0.44,0-0.61c-0.17-0.17-0.44-0.17-0.61,0
			C111.97,102.72,111.97,102.99,112.14,103.16z"/>
		<path fill="#FFFFFF" d="M113.88,104.29c0.17-0.17,0.17-0.44,0-0.61c-0.17-0.17-0.44-0.17-0.61,0s-0.17,0.44,0,0.61
			C113.44,104.46,113.71,104.46,113.88,104.29z"/>
		<polygon fill="#FFFFFF" points="118.52,88.28 117.72,89.08 118.33,89.69 119.14,88.89 119.14,88.28 		"/>
		<polygon fill="#FFFFFF" points="120.61,87.41 121.42,86.61 120.8,86 120,86.8 120,87.41 		"/>
		<polygon fill="#FFFFFF" points="120,87.41 120,87.66 120.61,88.28 121.75,88.28 121.75,87.41 120.61,87.41 		"/>
		<polygon fill="#FFFFFF" points="119.14,88.02 118.52,87.41 117.39,87.41 117.39,88.28 118.52,88.28 119.14,88.28 		"/>
		<polygon fill="#FFFFFF" points="119.14,88.02 119.14,88.28 119.14,88.89 119.14,90.03 120,90.03 120,88.89 		"/>
		<polygon fill="#FFFFFF" points="120,87.66 120,87.41 120,86.8 120,85.66 119.14,85.66 119.14,86.8 		"/>
		<polygon fill="#FFFFFF" points="120,87.66 119.14,86.8 118.33,86 117.72,86.61 118.52,87.41 119.14,88.02 120,88.89 120.8,89.69
			121.42,89.08 120.61,88.28 		"/>
		<polygon fill="#FFFFFF" points="155.78,88.78 152.73,87.31 152.15,87.88 153.61,91.08 154.39,90.72 153.43,88.61 155.41,89.56
			"/>
		<polygon fill="#FFFFFF" points="158.42,92.56 159.37,94.54 157.26,93.58 156.9,94.37 160.09,95.82 160.66,95.24 159.2,92.19 		"/>

			<rect x="152.93" y="91.08" transform="matrix(0.8989 -0.4382 0.4382 0.8989 -24.281 77.8074)" fill="#FFFFFF" width="7.06" height="0.86"/>
		<path fill="#FFFFFF" d="M130.97,71.85l-0.54-0.54c-0.42,0.65-0.65,1.41-0.65,2.21c0,1.1,0.43,2.13,1.2,2.9l0.01,0.01
			c0.77,0.77,1.8,1.2,2.9,1.2c0.8,0,1.56-0.23,2.21-0.65l-0.54-0.54l0.61-0.61l0.61,0.61c0,0,0.01,0,0.01-0.01l0.66-0.66l-0.61-0.61
			l0.61-0.61l0.61,0.61l0.66-0.66l-0.61-0.61l0.61-0.61l0.61,0.61l0.11-0.11l-0.61-0.61l-2.65,2.65c-1.22,1.22-3.37,1.22-4.58,0
			l-0.01-0.01c-0.61-0.61-0.95-1.42-0.95-2.29s0.34-1.68,0.95-2.29l0.66-0.66l-0.61-0.61l-0.66,0.66c0,0,0,0.01-0.01,0.01l0.61,0.61
			L130.97,71.85z"/>
		<polygon fill="#FFFFFF" points="134.24,68.58 133.63,67.97 133.52,68.08 134.13,68.69 133.52,69.3 132.91,68.69 132.25,69.35
			132.86,69.96 		"/>
		<path fill="#FFFFFF" d="M137.08,67.09c0.87,0,1.68,0.34,2.3,0.96c0.61,0.61,0.95,1.42,0.95,2.29c0,0.84-0.32,1.62-0.89,2.22
			l0.61,0.61c0.73-0.77,1.14-1.77,1.14-2.84c0-0.56-0.12-1.11-0.33-1.61l-0.78,0.23l-0.25-0.83l0.59-0.18
			c-0.13-0.19-0.27-0.37-0.44-0.53c-0.16-0.16-0.34-0.3-0.52-0.43l-0.18,0.59l-0.83-0.25l0.23-0.78c-0.5-0.21-1.05-0.33-1.61-0.33
			c-1.07,0-2.07,0.41-2.84,1.14l0.61,0.61C135.46,67.41,136.24,67.09,137.08,67.09z"/>
		<polygon fill="#FFFFFF" points="138.83,73.17 139.44,73.79 139.44,73.79 140.05,73.17 140.05,73.17 139.44,72.56 134.85,67.98
			134.24,67.36 134.24,67.36 133.63,67.97 133.63,67.97 134.24,68.58 		"/>
		<polygon fill="#FFFFFF" points="134.13,68.69 133.52,68.08 132.51,67.07 134.42,65.15 133.81,64.54 131.29,67.07 132.91,68.69
			133.52,69.3 		"/>
		<polygon fill="#FFFFFF" points="129.35,70.23 130.43,71.31 130.97,71.85 131.58,71.24 130.97,70.63 129.35,69 126.83,71.53
			127.44,72.14 		"/>
		<polygon fill="#FFFFFF" points="132.86,69.96 132.25,69.35 130.63,67.73 130.01,68.34 131.63,69.96 132.25,70.57 		"/>
		<polygon fill="#FFFFFF" points="135.56,76.44 136.1,76.98 137.18,78.06 135.27,79.97 135.88,80.58 138.41,78.06 136.79,76.44
			136.18,75.83 		"/>
		<polygon fill="#FFFFFF" points="138.11,73.89 138.72,74.5 140.34,76.12 142.87,73.6 142.26,72.99 140.34,74.9 139.34,73.89
			138.73,73.28 		"/>
		<polygon fill="#FFFFFF" points="136.84,75.17 137.45,75.78 139.07,77.4 139.68,76.79 138.06,75.17 137.45,74.55 		"/>

			<rect x="136.85" y="68.11" transform="matrix(0.7071 -0.7071 0.7071 0.7071 -8.1965 117.2982)" fill="#FFFFFF" width="1.28" height="0.86"/>

			<rect x="138.23" y="69.49" transform="matrix(0.7071 -0.7071 0.7071 0.7071 -8.766 118.6732)" fill="#FFFFFF" width="1.28" height="0.86"/>
		<polygon fill="#FFFFFF" points="139.28,67.58 139.46,66.99 140.11,64.79 138.86,63.53 138.25,64.15 139.14,65.04 138.69,66.55
			138.46,67.33 		"/>
		<polygon fill="#FFFFFF" points="140.08,68.95 140.86,68.72 142.37,68.27 143.27,69.16 143.88,68.55 142.62,67.3 140.42,67.95
			139.83,68.13 		"/>
		<path fill="#FFFFFF" d="M173.7,96.58l-10.6,10.6l0.61,0.61l10.6-10.6c0.36-0.35,0.93-0.36,1.29,0L188.41,110h1.22l-13.42-13.42
			C175.52,95.89,174.4,95.89,173.7,96.58z"/>
		<path fill="#FFFFFF" d="M174.32,98.27l-9.53,9.53l2.2,2.2h1.22l-2.2-2.2l8.97-8.92L186.07,110h1.26L175.6,98.26
			C175.24,97.91,174.67,97.92,174.32,98.27z"/>
		<path fill="#FFFFFF" d="M163.1,107.19l-1.34-1.34l-1.43,1.43c-0.75,0.75-0.76,1.94-0.07,2.72h1.21l-0.53-0.53
			c-0.44-0.44-0.44-1.14,0-1.58l0.82-0.82l2.93,2.93h1.22l-2.2-2.2L163.1,107.19z"/>
		<path fill="#FFFFFF" d="M162.64,1.49c0,0.32,0.08,0.65,0.24,0.98l0.19,0.39l0.78-0.38l-0.19-0.39c-0.1-0.21-0.15-0.41-0.15-0.59
			c0-0.2,0.04-0.4,0.12-0.6c0.08-0.21,0.2-0.42,0.36-0.63c0.07-0.09,0.16-0.17,0.23-0.26h-1.09c-0.12,0.19-0.23,0.39-0.3,0.58
			C162.7,0.88,162.64,1.19,162.64,1.49z"/>
		<path fill="#FFFFFF" d="M174.06,2.04c-0.52-0.12-1.02-0.13-1.48-0.03c-0.7,0.15-1.31,0.48-1.82,0.99l-1.4,1.4
			c-0.22,0.22-0.45,0.42-0.67,0.58c-0.21,0.16-0.42,0.28-0.63,0.36c-0.2,0.08-0.4,0.12-0.6,0.12c0,0,0,0,0,0
			c-0.19,0-0.39-0.05-0.59-0.15l-0.39-0.19l-0.38,0.78l0.39,0.19c0.32,0.16,0.65,0.24,0.97,0.24c0.27,0.03,0.62-0.06,0.92-0.17
			c0.29-0.11,0.57-0.27,0.84-0.47c0.25-0.19,0.51-0.41,0.76-0.66l1.4-1.4c0.4-0.4,0.85-0.65,1.39-0.76c0.53-0.11,1.13-0.03,1.8,0.25
			l0.57-0.57c-0.28-0.67-0.37-1.28-0.26-1.8c0.06-0.27,0.15-0.51,0.27-0.74h-0.95c-0.07,0.18-0.13,0.37-0.17,0.57
			C173.93,1.03,173.94,1.52,174.06,2.04z"/>
		<path fill="#FFFFFF" d="M135.12,7.95c0.44,0,0.85-0.17,1.16-0.48L143.75,0h-1.22l-6.86,6.86c-0.29,0.29-0.8,0.29-1.09,0L127.72,0
			h-1.22l7.47,7.47C134.27,7.78,134.68,7.95,135.12,7.95z"/>
		<polygon fill="#FFFFFF" points="151.82,14.28 150.86,12.17 152.84,13.12 153.21,12.34 150.16,10.88 149.58,11.44 151.03,14.64
			"/>
		<polygon fill="#FFFFFF" points="155.84,16.13 156.79,18.11 154.68,17.14 154.32,17.93 157.52,19.39 158.09,18.81 156.62,15.75
			"/>

			<rect x="150.35" y="14.65" transform="matrix(0.8989 -0.4381 0.4381 0.8989 8.9482 68.942)" fill="#FFFFFF" width="7.06" height="0.86"/>
		<path fill="#FFFFFF" d="M138.18,27.54c0.87,0,1.68,0.34,2.3,0.96c1.24,1.24,1.26,3.25,0.05,4.51l0.61,0.61
			c1.17-1.22,1.44-2.97,0.81-4.45l-0.78,0.23l-0.25-0.83l0.59-0.17c-0.13-0.18-0.27-0.37-0.44-0.53c-0.16-0.16-0.34-0.3-0.52-0.43
			l-0.18,0.59l-0.83-0.25l0.23-0.78c-0.5-0.21-1.05-0.33-1.61-0.33c-1.07,0-2.07,0.41-2.83,1.14l0.61,0.61
			C136.55,27.86,137.34,27.54,138.18,27.54z"/>
		<path fill="#FFFFFF" d="M132.07,32.3l-0.54-0.54c-0.42,0.65-0.65,1.41-0.65,2.21c0,1.1,0.43,2.13,1.2,2.9l0.01,0.01
			c0.77,0.77,1.8,1.2,2.9,1.2c0.8,0,1.56-0.23,2.21-0.65l-0.54-0.54l0.61-0.61l0.61,0.61c0,0,0.01,0,0.01-0.01l0.66-0.66l-0.61-0.61
			l0.61-0.61l0.61,0.61l0.66-0.66l-0.61-0.61l0.61-0.61l0.61,0.61l0.66-0.66c0,0,0,0,0-0.01l-0.56,0.56l-0.61-0.61l-2.65,2.65
			c-1.22,1.22-3.36,1.22-4.58,0l-0.01-0.01c-0.61-0.61-0.95-1.42-0.95-2.29s0.34-1.68,0.95-2.29l1.93-1.93l-0.61-0.61l-0.66,0.66
			l0.61,0.61l-0.61,0.61l-0.61-0.61l-0.66,0.66c0,0,0,0.01-0.01,0.01l0.61,0.61L132.07,32.3z"/>

			<rect x="134.9" y="28.35" transform="matrix(0.7071 -0.7071 0.7071 0.7071 19.1834 103.8727)" fill="#FFFFFF" width="0.15" height="0.86"/>
		<polygon fill="#FFFFFF" points="139.93,33.63 140.54,34.24 141.09,33.68 141.15,33.63 141.15,33.62 140.53,33.01 135.95,28.43
			135.34,27.82 135.34,27.81 135.27,27.87 134.72,28.42 135.34,29.03 		"/>
		<polygon fill="#FFFFFF" points="135.23,29.14 134.62,28.53 133.61,27.52 135.52,25.61 134.91,25 132.39,27.52 134.01,29.14
			134.62,29.75 		"/>
		<polygon fill="#FFFFFF" points="130.45,30.68 131.53,31.76 132.07,32.3 132.68,31.69 132.07,31.08 130.45,29.46 127.93,31.98
			128.54,32.59 		"/>
		<polygon fill="#FFFFFF" points="133.95,30.41 133.34,29.8 131.72,28.18 131.11,28.79 132.73,30.41 133.34,31.02 		"/>
		<polygon fill="#FFFFFF" points="136.66,36.89 137.2,37.43 138.28,38.51 136.37,40.42 136.98,41.03 139.5,38.51 137.88,36.89
			137.27,36.28 		"/>
		<polygon fill="#FFFFFF" points="139.21,34.34 139.82,34.95 141.44,36.57 143.97,34.05 143.36,33.44 141.44,35.35 140.43,34.34
			139.82,33.73 		"/>
		<polygon fill="#FFFFFF" points="137.94,35.62 138.55,36.23 140.17,37.85 140.78,37.24 139.16,35.62 138.55,35.01 		"/>

			<rect x="137.95" y="28.56" transform="matrix(0.7071 -0.7071 0.7071 0.7071 20.0896 106.4911)" fill="#FFFFFF" width="1.28" height="0.86"/>

			<rect x="139.33" y="29.94" transform="matrix(0.7071 -0.7071 0.7071 0.7071 19.5201 107.8661)" fill="#FFFFFF" width="1.28" height="0.86"/>
		<polygon fill="#FFFFFF" points="140.38,28.03 140.56,27.44 141.21,25.24 139.96,23.99 139.34,24.6 140.24,25.49 139.79,27
			139.55,27.78 		"/>
		<polygon fill="#FFFFFF" points="141.18,29.41 141.95,29.17 143.47,28.72 144.36,29.62 144.98,29.01 143.72,27.75 141.51,28.4
			140.93,28.58 		"/>
		<path fill="#FFFFFF" d="M117.77,11.37c0.17,0,0.33-0.07,0.46-0.2c0.13-0.13,0.2-0.29,0.19-0.45c0-0.17-0.07-0.32-0.2-0.45
			c-0.13-0.13-0.28-0.19-0.45-0.2c-0.17,0-0.32,0.06-0.46,0.19c-0.13,0.13-0.2,0.28-0.2,0.46s0.06,0.32,0.19,0.45
			C117.44,11.31,117.59,11.37,117.77,11.37z"/>
		<path fill="#FFFFFF" d="M115.02,13.59l0.94-0.41c0.18-0.07,0.3-0.13,0.38-0.18s0.15-0.1,0.21-0.16c0.13-0.13,0.2-0.28,0.2-0.45
			c0-0.16-0.07-0.31-0.2-0.44c-0.13-0.13-0.28-0.2-0.45-0.2s-0.32,0.06-0.45,0.2c-0.09,0.09-0.15,0.2-0.18,0.31
			s-0.01,0.23,0.03,0.34l-0.95,0.54L115.02,13.59z"/>
		<path fill="#FFFFFF" d="M41.73,45.9l-0.95,0.54l0.46,0.46l0.94-0.41c0.18-0.07,0.3-0.13,0.38-0.18c0.08-0.05,0.15-0.1,0.21-0.16
			c0.13-0.13,0.2-0.28,0.2-0.45c0-0.16-0.07-0.31-0.2-0.44s-0.28-0.2-0.45-0.2c-0.17,0-0.32,0.06-0.45,0.2
			c-0.09,0.09-0.15,0.2-0.18,0.31C41.68,45.68,41.69,45.79,41.73,45.9z"/>
		<path fill="#FFFFFF" d="M43.99,44.68c0.17,0,0.33-0.06,0.46-0.2c0.13-0.13,0.2-0.29,0.19-0.46c0-0.17-0.07-0.32-0.2-0.45
			c-0.13-0.13-0.28-0.19-0.45-0.2c-0.17,0-0.32,0.06-0.46,0.19c-0.13,0.13-0.2,0.28-0.2,0.46s0.06,0.32,0.19,0.45
			C43.67,44.61,43.82,44.68,43.99,44.68z"/>
		<path fill="#FFFFFF" d="M1.12,92.47c0.11-0.3,0.17-0.6,0.17-0.91c0-0.32-0.08-0.65-0.24-0.98L0.86,90.2l-0.78,0.38l0.19,0.39
			c0.1,0.21,0.15,0.41,0.15,0.59c0,0.2-0.04,0.4-0.12,0.6C0.24,92.35,0.13,92.54,0,92.72v1.33c0.24-0.24,0.46-0.49,0.65-0.74
			C0.85,93.04,1.01,92.75,1.12,92.47z"/>
		<path fill="#FFFFFF" d="M65.61,57.32c-0.29,0.11-0.57,0.27-0.84,0.47c-0.26,0.19-0.51,0.42-0.76,0.66l-1.4,1.4
			c-0.4,0.4-0.86,0.65-1.39,0.76c-0.53,0.11-1.13,0.02-1.8-0.26l-0.57,0.57c0.28,0.67,0.37,1.28,0.25,1.8
			c-0.11,0.54-0.36,0.99-0.76,1.39l-1.4,1.4c-0.25,0.25-0.47,0.5-0.66,0.76c-0.2,0.27-0.36,0.55-0.47,0.84
			c-0.11,0.29-0.17,0.6-0.17,0.91c0,0.32,0.08,0.65,0.24,0.98l0.19,0.39L56.86,69l-0.19-0.39c-0.1-0.21-0.15-0.41-0.15-0.59
			c0-0.2,0.04-0.41,0.12-0.6c0.08-0.21,0.2-0.42,0.36-0.63c0.17-0.22,0.36-0.45,0.58-0.67l1.4-1.4c0.51-0.51,0.85-1.13,0.99-1.82
			c0.1-0.46,0.09-0.96-0.03-1.48c0.52,0.12,1.01,0.13,1.47,0.03c0.7-0.14,1.31-0.48,1.83-1l1.4-1.4c0.22-0.22,0.44-0.41,0.67-0.58
			c0.21-0.16,0.42-0.28,0.63-0.36c0.2-0.08,0.4-0.12,0.6-0.12c0,0,0,0,0,0c0.19,0,0.39,0.05,0.59,0.15l0.39,0.19l0.38-0.78
			l-0.39-0.19c-0.32-0.16-0.65-0.24-0.97-0.24C66.18,57.17,65.91,57.2,65.61,57.32z"/>
		<path fill="#FFFFFF" d="M67.07,68.57c-0.52-0.12-1.02-0.13-1.48-0.03c-0.7,0.15-1.31,0.48-1.82,0.99l-1.4,1.4
			c-0.22,0.22-0.44,0.41-0.67,0.58c-0.21,0.16-0.42,0.28-0.63,0.36c-0.2,0.08-0.4,0.12-0.6,0.12c0,0,0,0,0,0
			c-0.19,0-0.39-0.05-0.59-0.15l-0.39-0.19l-0.38,0.78l0.39,0.19c0.32,0.16,0.65,0.24,0.97,0.24c0.31-0.05,0.62-0.06,0.92-0.17
			c0.28-0.11,0.57-0.27,0.84-0.47c0.26-0.19,0.51-0.42,0.76-0.66l1.4-1.4c0.4-0.4,0.85-0.65,1.39-0.76c0.52-0.11,1.13-0.03,1.8,0.25
			l0.57-0.57c-0.28-0.67-0.37-1.28-0.26-1.8c0.11-0.54,0.36-0.99,0.76-1.39l1.4-1.4c0.25-0.25,0.47-0.5,0.66-0.76
			c0.2-0.27,0.36-0.55,0.47-0.84c0.11-0.3,0.17-0.6,0.17-0.91c0-0.32-0.08-0.65-0.24-0.98l-0.19-0.39l-0.78,0.38l0.19,0.39
			c0.1,0.21,0.15,0.41,0.15,0.59c0,0.21-0.04,0.4-0.12,0.6c-0.08,0.21-0.2,0.42-0.36,0.63c-0.17,0.22-0.36,0.45-0.58,0.67l-1.4,1.4
			c-0.52,0.52-0.85,1.13-1,1.83C66.94,67.55,66.95,68.05,67.07,68.57z"/>
		<path fill="#FFFFFF" d="M70.16,93.99C70.15,93.99,70.15,93.99,70.16,93.99c-0.31,0-0.62,0.06-0.92,0.17
			c-0.28,0.11-0.56,0.27-0.84,0.47c-0.26,0.19-0.51,0.42-0.76,0.66l-1.4,1.4c-0.4,0.4-0.86,0.65-1.39,0.76
			c-0.52,0.11-1.13,0.02-1.8-0.26l-0.57,0.57c0.28,0.67,0.37,1.28,0.25,1.8c-0.11,0.54-0.36,0.99-0.76,1.39l-1.4,1.4
			c-0.25,0.25-0.47,0.5-0.66,0.76c-0.2,0.27-0.36,0.56-0.47,0.84c-0.11,0.3-0.17,0.6-0.17,0.91c0,0.32,0.08,0.65,0.24,0.98
			l0.19,0.39l0.78-0.38l-0.19-0.39c-0.1-0.21-0.15-0.41-0.15-0.59c0-0.2,0.04-0.4,0.12-0.6c0.08-0.21,0.2-0.42,0.36-0.63
			c0.17-0.22,0.36-0.45,0.58-0.67l1.4-1.4c0.51-0.51,0.85-1.13,0.99-1.82c0.1-0.46,0.09-0.96-0.03-1.48
			c0.52,0.12,1.01,0.13,1.47,0.03c0.7-0.14,1.31-0.48,1.83-1l1.4-1.4c0.22-0.22,0.44-0.41,0.67-0.58c0.21-0.16,0.42-0.28,0.63-0.36
			c0.2-0.08,0.4-0.12,0.61-0.12c0,0,0,0,0,0c0.19,0,0.39,0.05,0.59,0.15l0.39,0.19l0.38-0.78l-0.39-0.19
			C70.8,94.07,70.47,93.99,70.16,93.99z"/>
		<path fill="#FFFFFF" d="M70.7,105.41c-0.52-0.12-1.02-0.13-1.48-0.03c-0.7,0.15-1.31,0.48-1.82,0.99l-1.4,1.4
			c-0.22,0.22-0.44,0.41-0.67,0.58c-0.21,0.16-0.42,0.28-0.63,0.36c-0.2,0.08-0.4,0.12-0.6,0.12c0,0,0,0,0,0
			c-0.19,0-0.39-0.05-0.59-0.15l-0.39-0.19l-0.38,0.78l0.39,0.19c0.32,0.16,0.65,0.24,0.97,0.24c0,0,0,0,0.01,0
			c0.3,0,0.61-0.06,0.91-0.17c0.28-0.11,0.56-0.27,0.84-0.47c0.25-0.19,0.51-0.41,0.76-0.66l1.4-1.4c0.4-0.4,0.85-0.65,1.39-0.76
			c0.53-0.11,1.13-0.03,1.8,0.25l0.57-0.57c-0.28-0.67-0.37-1.28-0.26-1.8c0.11-0.54,0.36-0.99,0.76-1.39l1.4-1.4
			c0.25-0.25,0.47-0.5,0.66-0.76c0.2-0.27,0.36-0.55,0.47-0.84c0.11-0.3,0.17-0.6,0.17-0.91c0-0.32-0.08-0.65-0.24-0.98l-0.19-0.39
			l-0.78,0.38l0.19,0.39c0.1,0.21,0.15,0.41,0.15,0.59c0,0.21-0.04,0.4-0.12,0.6c-0.08,0.21-0.2,0.42-0.36,0.63
			c-0.17,0.22-0.36,0.45-0.58,0.67l-1.4,1.4c-0.52,0.52-0.85,1.13-1,1.83C70.57,104.39,70.58,104.89,70.7,105.41z"/>
		<path fill="#FFFFFF" d="M53.01,33.83c0.82,0.82,1.91,1.23,3.01,1.23c0.97,0,1.94-0.34,2.73-1l-0.28-0.28l0.61-0.61l0.3,0.3
			l1.87-1.86l-0.3-0.3L60.63,31l-2.3,2.3c-1.32,1.24-3.44,1.2-4.72-0.08l-1.59-1.59c-1.28-1.28-1.31-3.39-0.09-4.71l2.31-2.31
			l-0.31-0.31l0.61-0.61L54.86,24l0.7-0.7l6.39,6.39l-0.7,0.7l0.31,0.31l0.3,0.3l1.32-1.31l-7.61-7.61l-4.24,4.25
			c-1.55,1.66-1.51,4.31,0.1,5.92L53.01,33.83z"/>
		<polygon fill="#FFFFFF" points="61.25,30.39 54.86,24 54.55,23.69 53.94,24.31 54.25,24.61 60.63,31 60.94,31.31 61.55,30.69
			"/>
		<path fill="#FFFFFF" d="M60.94,31.31l0.3,0.3l1.56,1.56c0.34,0.34,0.34,0.88,0,1.22l-0.64,0.64c-0.34,0.34-0.89,0.34-1.22,0
			l-1.56-1.56l-0.3-0.3l-0.61,0.61l0.28,0.28l1.59,1.59c0.34,0.34,0.78,0.5,1.22,0.5c0.44,0,0.88-0.17,1.22-0.5L63.42,35
			c0.67-0.67,0.67-1.77,0-2.44L61.86,31l-0.3-0.3L60.94,31.31z"/>
		<path fill="#FFFFFF" d="M59.11,22.31c0.33-0.08,0.73-0.19,1.21-0.66s0.58-0.88,0.66-1.21c0.07-0.28,0.13-0.51,0.44-0.81
			s0.53-0.37,0.81-0.44c0.08-0.02,0.17-0.04,0.26-0.07l-0.26-0.82c-0.07,0.02-0.14,0.04-0.21,0.06c-0.33,0.08-0.73,0.19-1.21,0.66
			c-0.47,0.47-0.58,0.88-0.66,1.21c-0.07,0.28-0.13,0.51-0.44,0.81c-0.31,0.31-0.53,0.37-0.81,0.44c-0.22,0.06-0.48,0.12-0.76,0.3
			l0.46,0.73C58.77,22.4,58.92,22.36,59.11,22.31z"/>
		<path fill="#FFFFFF" d="M61.89,23.21c-0.31,0.31-0.53,0.37-0.81,0.44c-0.22,0.06-0.48,0.12-0.76,0.3l0.46,0.73
			c0.17-0.11,0.33-0.15,0.52-0.2c0.33-0.08,0.73-0.19,1.21-0.66c0.47-0.47,0.58-0.88,0.66-1.21c0.07-0.28,0.13-0.51,0.44-0.81
			c0.31-0.31,0.53-0.37,0.81-0.44c0.08-0.02,0.17-0.04,0.26-0.07l-0.26-0.82c-0.07,0.02-0.14,0.04-0.21,0.06
			c-0.33,0.08-0.73,0.19-1.21,0.66c-0.47,0.47-0.58,0.88-0.66,1.21C62.25,22.68,62.19,22.9,61.89,23.21z"/>
		<path fill="#FFFFFF" d="M64.06,25.39c-0.31,0.31-0.53,0.37-0.81,0.44c-0.22,0.06-0.48,0.12-0.76,0.3l0.46,0.73
			c0.17-0.11,0.33-0.15,0.52-0.2c0.33-0.08,0.73-0.19,1.21-0.66c0.47-0.47,0.58-0.88,0.66-1.21c0.07-0.28,0.13-0.51,0.44-0.81
			c0.31-0.31,0.53-0.37,0.81-0.44c0.08-0.02,0.17-0.04,0.25-0.07l-0.26-0.82c-0.07,0.02-0.14,0.04-0.21,0.06
			c-0.33,0.08-0.73,0.19-1.21,0.66c-0.47,0.47-0.58,0.88-0.66,1.21C64.43,24.86,64.37,25.08,64.06,25.39z"/>
		<path fill="#FFFFFF" d="M23.3,37.1c0.32,0.32,0.74,0.48,1.16,0.48c0.42,0,0.84-0.16,1.16-0.48l9.68-9.68
			c0.64-0.64,0.64-1.68,0-2.32L35.2,25l-0.61,0.61l0.1,0.1c0.15,0.15,0.23,0.34,0.23,0.55s-0.08,0.4-0.23,0.55L25,36.49
			c-0.3,0.3-0.79,0.3-1.09,0L10.97,23.56c-0.3-0.3-0.3-0.79,0-1.1l9.68-9.68c0.3-0.3,0.79-0.3,1.1,0l8,8l0.61-0.61l-8-8
			c-0.62-0.62-1.7-0.62-2.32,0l-9.68,9.68c-0.64,0.64-0.64,1.68,0,2.32L23.3,37.1z"/>

			<rect x="21.29" y="15.84" transform="matrix(0.7071 -0.7071 0.7071 0.7071 -6.0036 20.4849)" fill="#FFFFFF" width="0.86" height="3.31"/>

			<rect x="24.02" y="18.57" transform="matrix(0.7071 -0.7071 0.7071 0.7071 -7.1357 23.2166)" fill="#FFFFFF" width="0.86" height="3.31"/>

			<rect x="20.6" y="18.87" transform="matrix(0.7071 -0.7071 0.7071 0.7071 -8.3547 20.8811)" fill="#FFFFFF" width="0.86" height="3.31"/>

			<rect x="23.33" y="21.6" transform="matrix(0.7071 -0.7071 0.7071 0.7071 -9.4861 23.6125)" fill="#FFFFFF" width="0.86" height="3.31"/>

			<rect x="20.1" y="22.1" transform="matrix(0.7071 -0.7071 0.7071 0.7071 -10.7871 21.4736)" fill="#FFFFFF" width="0.86" height="3.31"/>

			<rect x="22.83" y="24.84" transform="matrix(0.707 -0.7073 0.7073 0.707 -11.9193 24.2125)" fill="#FFFFFF" width="0.86" height="3.31"/>

			<rect x="17.08" y="22.82" transform="matrix(0.7071 -0.7071 0.7071 0.7071 -12.1766 19.5485)" fill="#FFFFFF" width="0.86" height="3.31"/>

			<rect x="19.81" y="25.55" transform="matrix(0.7071 -0.7071 0.7071 0.7071 -13.308 22.28)" fill="#FFFFFF" width="0.86" height="3.31"/>
		<path fill="#FFFFFF" d="M31.65,22.06c0.17-0.17,0.17-0.44,0-0.61c-0.17-0.17-0.44-0.17-0.61,0c-0.17,0.17-0.17,0.44,0,0.61
			C31.21,22.23,31.49,22.23,31.65,22.06z"/>
		<path fill="#FFFFFF" d="M32.78,23.19c0.17-0.17,0.17-0.44,0-0.61c-0.17-0.17-0.44-0.17-0.61,0c-0.17,0.17-0.17,0.44,0,0.61
			C32.34,23.36,32.61,23.36,32.78,23.19z"/>
		<path fill="#FFFFFF" d="M33.91,24.32c0.17-0.17,0.17-0.44,0-0.61c-0.17-0.17-0.44-0.17-0.61,0c-0.17,0.17-0.17,0.44,0,0.61
			C33.46,24.49,33.74,24.49,33.91,24.32z"/>
		<path fill="#FFFFFF" d="M18.27,96.19l9.68-9.68c0.29-0.29,0.8-0.29,1.09,0l8,8l0.61-0.61l-8-8c-0.64-0.64-1.68-0.64-2.32,0
			l-9.68,9.68c-0.64,0.64-0.64,1.68,0,2.32l12.1,12.1h1.22L18.27,97.29C17.97,96.99,17.97,96.49,18.27,96.19z"/>
		<path fill="#FFFFFF" d="M43.08,99.99c0-0.44-0.17-0.85-0.48-1.16l-0.1-0.1l-0.61,0.61l0.1,0.1c0.15,0.15,0.23,0.34,0.23,0.55
			c0,0.21-0.08,0.4-0.23,0.55L32.52,110h1.22l8.85-8.85C42.91,100.84,43.08,100.43,43.08,99.99z"/>

			<rect x="28.59" y="89.57" transform="matrix(0.7071 -0.7071 0.7071 0.7071 -56.0028 47.241)" fill="#FFFFFF" width="0.86" height="3.31"/>

			<rect x="31.32" y="92.3" transform="matrix(0.7071 -0.7071 0.7071 0.7071 -57.1342 49.9724)" fill="#FFFFFF" width="0.86" height="3.31"/>

			<rect x="27.89" y="92.6" transform="matrix(0.7071 -0.7071 0.7071 0.7071 -58.3539 47.6372)" fill="#FFFFFF" width="0.86" height="3.31"/>

			<rect x="30.63" y="95.34" transform="matrix(0.7071 -0.7071 0.7071 0.7071 -59.4853 50.3686)" fill="#FFFFFF" width="0.86" height="3.31"/>

			<rect x="27.39" y="95.84" transform="matrix(0.7071 -0.7071 0.7071 0.7071 -60.7863 48.2297)" fill="#FFFFFF" width="0.86" height="3.31"/>

			<rect x="30.12" y="98.57" transform="matrix(0.7071 -0.7071 0.7071 0.7071 -61.9177 50.9611)" fill="#FFFFFF" width="0.86" height="3.31"/>

			<rect x="24.37" y="96.55" transform="matrix(0.7071 -0.7071 0.7071 0.7071 -62.1754 46.3036)" fill="#FFFFFF" width="0.86" height="3.31"/>

			<rect x="27.11" y="99.28" transform="matrix(0.7073 -0.707 0.707 0.7073 -63.2959 49.0165)" fill="#FFFFFF" width="0.86" height="3.31"/>
		<path fill="#FFFFFF" d="M38.34,95.18c-0.17,0.17-0.17,0.44,0,0.61s0.44,0.17,0.61,0c0.17-0.17,0.17-0.44,0-0.61
			C38.78,95.01,38.51,95.01,38.34,95.18z"/>
		<circle fill="#FFFFFF" cx="39.77" cy="96.62" r="0.43"/>
		<circle fill="#FFFFFF" cx="40.9" cy="97.74" r="0.43"/>

			<rect x="78.74" y="47.14" transform="matrix(0.7071 -0.7071 0.7071 0.7071 -11.6902 70.428)" fill="#FFFFFF" width="0.86" height="4.37"/>

			<rect x="80.62" y="45.26" transform="matrix(0.7071 -0.7071 0.7071 0.7071 -9.8113 71.2063)" fill="#FFFFFF" width="0.86" height="4.37"/>
		<polygon fill="#FFFFFF" points="82.69,85.66 81.88,86.47 82.5,87.08 83.3,86.27 83.3,85.66 		"/>
		<polygon fill="#FFFFFF" points="84.78,84.8 85.58,83.99 84.97,83.38 84.16,84.19 84.16,84.8 		"/>
		<polygon fill="#FFFFFF" points="83.3,85.41 82.69,84.8 81.55,84.8 81.55,85.66 82.69,85.66 83.3,85.66 		"/>
		<polygon fill="#FFFFFF" points="84.16,84.8 84.16,85.05 84.78,85.66 85.92,85.66 85.92,84.8 84.78,84.8 		"/>
		<polygon fill="#FFFFFF" points="84.16,85.05 84.16,84.8 84.16,84.19 84.16,83.05 83.3,83.05 83.3,84.18 		"/>
		<polygon fill="#FFFFFF" points="83.3,85.41 83.3,85.66 83.3,86.27 83.3,87.41 84.16,87.41 84.16,86.27 		"/>
		<polygon fill="#FFFFFF" points="84.16,85.05 83.3,84.18 82.5,83.38 81.88,83.99 82.69,84.8 83.3,85.41 84.16,86.27 84.97,87.08
			85.58,86.47 84.78,85.66 		"/>
		<polygon fill="#FFFFFF" points="40.64,7.44 41.44,6.63 40.83,6.02 40.02,6.83 40.02,7.44 		"/>
		<polygon fill="#FFFFFF" points="38.55,8.3 37.74,9.11 38.36,9.72 39.16,8.91 39.16,8.3 		"/>
		<polygon fill="#FFFFFF" points="39.16,8.3 39.16,8.05 38.55,7.44 37.41,7.44 37.41,8.3 38.55,8.3 		"/>
		<polygon fill="#FFFFFF" points="40.02,7.69 40.64,8.3 41.78,8.3 41.78,7.44 40.64,7.44 40.02,7.44 		"/>
		<polygon fill="#FFFFFF" points="39.16,8.05 39.16,8.3 39.16,8.91 39.16,10.05 40.02,10.05 40.02,8.91 		"/>
		<polygon fill="#FFFFFF" points="40.02,7.69 40.02,7.44 40.02,6.83 40.02,5.69 39.16,5.69 39.16,6.83 		"/>
		<polygon fill="#FFFFFF" points="39.16,8.05 40.02,8.91 40.83,9.72 41.44,9.11 40.64,8.3 40.02,7.69 39.16,6.83 38.36,6.02
			37.74,6.63 38.55,7.44 		"/>
		<polygon fill="#FFFFFF" points="99.67,65.88 96.61,64.42 96.04,64.98 97.49,68.18 98.28,67.82 97.32,65.71 99.3,66.66 		"/>
		<polygon fill="#FFFFFF" points="102.3,69.67 103.25,71.65 101.14,70.68 100.78,71.47 103.98,72.93 104.55,72.35 103.08,69.29
			"/>

			<rect x="96.81" y="68.19" transform="matrix(0.8989 -0.4382 0.4382 0.8989 -19.9217 50.9044)" fill="#FFFFFF" width="7.06" height="0.86"/>
		<polygon fill="#FFFFFF" points="74.42,10.74 73.46,8.64 75.44,9.58 75.81,8.8 72.76,7.34 72.18,7.91 73.63,11.1 		"/>
		<polygon fill="#FFFFFF" points="78.44,12.59 79.39,14.57 77.28,13.61 76.93,14.39 80.12,15.85 80.69,15.27 79.22,12.22 		"/>

			<rect x="72.96" y="11.11" transform="matrix(0.8989 -0.4381 0.4381 0.8989 2.6736 34.6754)" fill="#FFFFFF" width="7.06" height="0.86"/>
		<path fill="#FFFFFF" d="M115.01,54.35l0.14,1.56l1.24-0.95l0.5-0.38l0.62,1.08l0.43,0.75l0.75-0.43l0.73-0.42l0.73-0.42l0.75-0.43
			l-0.43-0.75l-0.62-1.08l0.58-0.24l1.45-0.6l-1.28-0.9l-4.76-3.36l-1.53-1.08l0.17,1.86L115.01,54.35z M120.11,51.83l-1.49,0.62
			l1.12,1.93L119,54.8l-0.01,0l-0.73,0.42l-1.12-1.93l-1.28,0.98l-0.53-5.8L120.11,51.83z"/>
		<path fill="#FFFFFF" d="M8.13,45.05l0.73-0.42l0.73-0.42l0.75-0.43l-0.43-0.75l-0.62-1.08l0.58-0.24l1.45-0.6l-1.28-0.9
			l-4.76-3.36l-1.53-1.08l0.17,1.86l0.53,5.8l0.14,1.56l1.24-0.95l0.5-0.38l0.62,1.08l0.43,0.75L8.13,45.05z M6.58,42.37L5.3,43.35
			l-0.53-5.8l4.76,3.36l-1.49,0.62l1.12,1.93l-0.73,0.42l-0.01,0L7.7,44.3L6.58,42.37z"/>

			<rect x="24.29" y="58.03" transform="matrix(0.7071 -0.7071 0.7071 0.7071 -34.2038 34.3491)" fill="#FFFFFF" width="0.15" height="0.86"/>

			<rect x="22.9" y="59.03" transform="matrix(0.7071 -0.7071 0.7071 0.7071 -35.1996 33.9364)" fill="#FFFFFF" width="0.94" height="0.86"/>
		<path fill="#FFFFFF" d="M30.31,58.26l0.59-0.17c-0.13-0.18-0.27-0.37-0.44-0.53c-0.16-0.16-0.34-0.3-0.52-0.43l-0.17,0.59
			l-0.83-0.25l0.23-0.78c-1.47-0.63-3.23-0.35-4.45,0.81l0.61,0.61c1.27-1.2,3.27-1.19,4.53,0.07c1.24,1.24,1.26,3.25,0.06,4.52
			l0.61,0.61c1.16-1.22,1.44-2.97,0.81-4.44l-0.78,0.23L30.31,58.26z"/>

			<rect x="29.49" y="63.23" transform="matrix(0.7074 -0.7069 0.7069 0.7074 -36.3511 39.5308)" fill="#FFFFFF" width="0.15" height="0.86"/>
		<path fill="#FFFFFF" d="M26.67,65.96c-1.27,1.26-3.32,1.26-4.58,0l-0.31,0.31l0.29-0.32c-1.26-1.26-1.26-3.32,0-4.58l0.66-0.66
			l-0.61-0.61l-0.66,0.66c0,0,0,0.01-0.01,0.01l0.61,0.61l-0.61,0.61l-0.54-0.54c-1.02,1.59-0.84,3.73,0.56,5.13l0,0
			c0.8,0.79,1.85,1.19,2.9,1.19c0.77,0,1.54-0.22,2.21-0.65l-0.54-0.54L26.67,65.96l0.6,0.62c0,0,0.01,0,0.01-0.01l0.66-0.66
			l-0.61-0.61L26.67,65.96z"/>

			<rect x="28.1" y="64.23" transform="matrix(0.7071 -0.7071 0.7071 0.7071 -37.3553 39.1413)" fill="#FFFFFF" width="0.94" height="0.86"/>
		<polygon fill="#FFFFFF" points="25.34,58.11 24.73,57.5 24.72,57.49 24.11,58.1 24.11,58.1 24.72,58.71 29.31,63.31 29.92,63.92
			30.47,63.37 30.54,63.31 30.53,63.3 29.92,62.69 		"/>
		<polygon fill="#FFFFFF" points="24,59.43 24.61,58.82 24.61,58.82 24,58.21 22.99,57.2 24.91,55.29 24.29,54.68 21.77,57.2
			23.39,58.82 24,59.43 		"/>
		<polygon fill="#FFFFFF" points="22.07,61.37 21.45,60.76 19.83,59.14 17.31,61.66 17.92,62.27 19.83,60.36 20.91,61.44
			21.45,61.98 		"/>
		<polygon fill="#FFFFFF" points="22.73,60.71 23.34,60.1 23.34,60.1 22.73,59.48 21.11,57.86 20.5,58.48 22.12,60.09 22.73,60.71
					"/>
		<polygon fill="#FFFFFF" points="26.05,66.57 26.59,67.12 27.67,68.19 25.75,70.11 26.37,70.72 28.89,68.19 27.27,66.57
			26.66,65.96 		"/>
		<polygon fill="#FFFFFF" points="28.6,64.03 29.21,64.64 30.83,66.26 33.35,63.73 32.74,63.12 30.83,65.03 29.82,64.03
			29.21,63.41 		"/>
		<polygon fill="#FFFFFF" points="27.93,64.69 27.32,65.3 27.32,65.3 27.93,65.91 29.55,67.53 30.16,66.92 28.54,65.3 27.93,64.69
					"/>

			<rect x="27.34" y="58.25" transform="matrix(0.7071 -0.7071 0.7071 0.7071 -33.2976 36.9681)" fill="#FFFFFF" width="1.28" height="0.86"/>

			<rect x="28.71" y="59.62" transform="matrix(0.706 -0.7082 0.7082 0.706 -33.9014 38.444)" fill="#FFFFFF" width="1.28" height="0.86"/>
		<polygon fill="#FFFFFF" points="29.77,57.71 29.94,57.13 30.6,54.93 29.34,53.67 28.73,54.28 29.62,55.17 29.17,56.69
			28.94,57.47 		"/>
		<polygon fill="#FFFFFF" points="30.9,58.09 30.31,58.26 30.56,59.09 31.34,58.86 32.86,58.4 33.75,59.3 34.36,58.69 33.1,57.43
			"/>
		<polygon fill="#FFFFFF" points="56.52,0 55.3,0 55.91,0.61 		"/>

			<rect x="8.68" y="76.74" transform="matrix(0.7071 -0.7071 0.7071 0.7071 -53.1349 29.5561)" fill="#FFFFFF" width="0.86" height="4.36"/>

			<rect x="10.56" y="74.86" transform="matrix(0.7072 -0.707 0.707 0.7072 -51.249 30.3247)" fill="#FFFFFF" width="0.86" height="4.36"/>

			<rect x="45.09" y="82.1" transform="matrix(0.7072 -0.707 0.707 0.7072 -44.8884 56.6619)" fill="#FFFFFF" width="1.75" height="0.86"/>

			<rect x="46.94" y="80.25" transform="matrix(0.7071 -0.7071 0.7071 0.7071 -43.0435 57.4415)" fill="#FFFFFF" width="1.75" height="0.86"/>
		<polygon fill="#FFFFFF" points="48.13,83.45 48.74,82.84 47.5,81.6 46.89,80.99 45.65,79.75 45.04,80.37 46.28,81.6 46.89,82.21
					"/>
		<path fill="#FFFFFF" d="M94.34,17.22c0.34-0.34,0.95-0.34,1.29,0l15.64,15.64c0.17,0.17,0.27,0.4,0.27,0.64s-0.09,0.47-0.27,0.64
			l-10.6,10.6l0.61,0.61l10.6-10.6c0.33-0.33,0.52-0.78,0.52-1.26s-0.18-0.92-0.52-1.26L96.24,16.61c-0.67-0.67-1.84-0.67-2.51,0
			l-10.6,10.6l0.61,0.61L94.34,17.22z"/>
		<path fill="#FFFFFF" d="M95.62,18.29c-0.35-0.35-0.92-0.35-1.27,0l-9.53,9.53l15.85,15.85l9.53-9.53c0.35-0.35,0.35-0.92,0-1.27
			L95.62,18.29z M100.67,42.45L86.04,27.82l8.97-8.92l14.58,14.63L100.67,42.45z"/>
		<path fill="#FFFFFF" d="M80.35,27.31c-0.77,0.77-0.77,2.03,0,2.8l18.03,18.03c0.39,0.39,0.89,0.58,1.4,0.58
			c0.51,0,1.01-0.19,1.4-0.58l1.43-1.43l-1.34-1.34l-0.61-0.61L83.74,27.82l-0.61-0.61l-1.34-1.34L80.35,27.31z M100.58,47.53
			c-0.44,0.44-1.14,0.43-1.58,0L80.97,29.5c-0.44-0.44-0.44-1.14,0-1.58l0.82-0.82l19.61,19.61L100.58,47.53z"/>

			<rect x="90.35" y="35.35" transform="matrix(0.7071 -0.7071 0.7071 0.7071 -0.072 75.2404)" fill="#FFFFFF" width="0.86" height="4.71"/>
		<polygon fill="#FFFFFF" points="4.8,4.82 5.61,4.02 5,3.41 4.19,4.21 4.19,4.82 		"/>
		<polygon fill="#FFFFFF" points="2.72,5.69 1.91,6.49 2.52,7.1 3.33,6.3 3.33,5.69 		"/>
		<polygon fill="#FFFFFF" points="4.19,5.07 4.8,5.69 5.94,5.69 5.94,4.82 4.8,4.82 4.19,4.82 		"/>
		<polygon fill="#FFFFFF" points="3.33,5.43 2.72,4.82 1.58,4.82 1.58,5.69 2.72,5.69 3.33,5.69 		"/>
		<polygon fill="#FFFFFF" points="4.19,7.44 4.19,6.3 3.33,5.43 3.33,5.69 3.33,6.3 3.33,7.44 		"/>
		<polygon fill="#FFFFFF" points="4.19,5.07 4.19,4.82 4.19,4.21 4.19,3.07 3.33,3.07 3.33,4.21 		"/>
		<polygon fill="#FFFFFF" points="3.33,5.43 4.19,6.3 5,7.1 5.61,6.49 4.8,5.69 4.19,5.07 3.33,4.21 2.52,3.41 1.91,4.02 2.72,4.82
					"/>
	</g>
</g>
<g id="Кнопка">
</g>
<g id="Закрыть">
	<g>
		<path fill="#FFFFFF" d="M47.25,26.71c0,3.28-2.46,5.31-6.38,5.31h-2.96v4.05h-3.4v-14.7h6.36C44.79,21.38,47.25,23.42,47.25,26.71
			z M43.81,26.71c0-1.62-1.05-2.56-3.13-2.56h-2.77v5.1h2.77C42.76,29.26,43.81,28.31,43.81,26.71z"/>
		<path fill="#FFFFFF" d="M60.14,31.36H51.6c0.31,1.41,1.51,2.27,3.23,2.27c1.2,0,2.06-0.36,2.83-1.09l1.74,1.89
			c-1.05,1.2-2.62,1.83-4.66,1.83c-3.91,0-6.45-2.46-6.45-5.82c0-3.38,2.58-5.82,6.03-5.82c3.32,0,5.88,2.23,5.88,5.86
			C60.21,30.72,60.17,31.08,60.14,31.36z M51.56,29.44h5.56c-0.23-1.43-1.3-2.35-2.77-2.35C52.86,27.09,51.79,28,51.56,29.44z"/>
		<path fill="#FFFFFF" d="M72.24,29.63v6.45h-3.07v-1.41c-0.61,1.03-1.79,1.58-3.44,1.58c-2.65,0-4.22-1.47-4.22-3.42
			c0-1.99,1.41-3.38,4.85-3.38h2.6c0-1.41-0.84-2.23-2.6-2.23c-1.2,0-2.44,0.4-3.25,1.05l-1.18-2.29c1.24-0.88,3.07-1.37,4.87-1.37
			C70.25,24.61,72.24,26.21,72.24,29.63z M68.97,32.51v-1.15h-2.25c-1.53,0-2.02,0.57-2.02,1.32c0,0.82,0.69,1.37,1.85,1.37
			C67.64,34.04,68.59,33.54,68.97,32.51z"/>
		<path fill="#FFFFFF" d="M85.93,24.78v11.3h-3.28v-8.61h-3.57l-0.11,1.99c-0.17,4.03-0.82,6.85-3.61,6.85
			c-0.5,0-1.05-0.08-1.7-0.25l0.17-2.69c0.17,0.02,0.34,0.04,0.48,0.04c1.55,0,1.68-1.95,1.79-4.09l0.17-4.54H85.93z"/>
		<path fill="#FFFFFF" d="M99.75,32.15c0,2.5-1.85,3.95-5,3.95l-5.67-0.02v-11.3h3.25v3.61h2.86
			C98.15,28.42,99.75,29.78,99.75,32.15z M96.41,32.11c0-1.11-0.69-1.58-1.95-1.6l-2.12-0.02v3.28h2.12
			C95.72,33.79,96.41,33.22,96.41,32.11z"/>
		<path fill="#FFFFFF" d="M101.79,24.78h3.25v4.41h4.91v-4.41h3.28v11.3h-3.28v-4.22h-4.91v4.22h-3.25V24.78z"/>
		<path fill="#FFFFFF" d="M126.19,29.63v6.45h-3.07v-1.41c-0.61,1.03-1.78,1.58-3.44,1.58c-2.65,0-4.22-1.47-4.22-3.42
			c0-1.99,1.41-3.38,4.85-3.38h2.6c0-1.41-0.84-2.23-2.6-2.23c-1.2,0-2.44,0.4-3.25,1.05l-1.18-2.29c1.24-0.88,3.07-1.37,4.87-1.37
			C124.19,24.61,126.19,26.21,126.19,29.63z M122.91,32.51v-1.15h-2.25c-1.53,0-2.02,0.57-2.02,1.32c0,0.82,0.69,1.37,1.85,1.37
			C121.59,34.04,122.53,33.54,122.91,32.51z"/>
		<path fill="#FFFFFF" d="M139.08,24.78v11.3h-2.92v-3.23h-2.41l-2.14,3.23h-3.49l2.58-3.7c-1.55-0.61-2.41-1.78-2.41-3.44
			c0-2.69,2.08-4.16,5.4-4.16H139.08z M131.63,29.04c0,1.13,0.71,1.62,2.08,1.62h2.46v-3.21h-2.41
			C132.38,27.45,131.63,27.91,131.63,29.04z"/>
		<path fill="#FFFFFF" d="M147.25,30.43c0-3.4,2.62-5.82,6.3-5.82c2.37,0,4.24,1.03,5.06,2.88l-2.54,1.36
			c-0.61-1.07-1.51-1.55-2.54-1.55c-1.66,0-2.96,1.15-2.96,3.13c0,1.97,1.3,3.13,2.96,3.13c1.03,0,1.93-0.46,2.54-1.55l2.54,1.39
			c-0.82,1.81-2.69,2.86-5.06,2.86C149.88,36.25,147.25,33.83,147.25,30.43z"/>
		<path fill="#FFFFFF" d="M165.58,31.8h-1.7v4.28h-3.28v-11.3h3.28v4.39h1.76l3.07-4.39h3.49l-3.95,5.42l4.22,5.88h-3.86
			L165.58,31.8z"/>
		<path fill="#FFFFFF" d="M174.09,24.78h3.25v6.72l5.5-6.72h3v11.3h-3.25v-6.72l-5.48,6.72h-3.02V24.78z"/>
		<path fill="#FFFFFF" d="M201.66,33.39v5.12h-3.04v-2.44h-7.94v2.44h-3.04v-5.12h0.46c1.55-0.04,1.83-2.25,1.95-4.7l0.15-3.91h9.85
			v8.61H201.66z M192,33.39h4.77v-5.92h-3.7l-0.06,1.45C192.95,30.83,192.8,32.55,192,33.39z"/>
		<path fill="#FFFFFF" d="M208.7,31.8H207v4.28h-3.28v-11.3H207v4.39h1.76l3.07-4.39h3.49l-3.95,5.42l4.22,5.88h-3.86L208.7,31.8z"
			/>
		<path fill="#FFFFFF" d="M226.82,29.63v6.45h-3.07v-1.41c-0.61,1.03-1.79,1.58-3.44,1.58c-2.65,0-4.22-1.47-4.22-3.42
			c0-1.99,1.41-3.38,4.85-3.38h2.6c0-1.41-0.84-2.23-2.6-2.23c-1.2,0-2.44,0.4-3.25,1.05l-1.18-2.29c1.24-0.88,3.07-1.37,4.87-1.37
			C224.82,24.61,226.82,26.21,226.82,29.63z M223.54,32.51v-1.15h-2.25c-1.53,0-2.02,0.57-2.02,1.32c0,0.82,0.69,1.37,1.85,1.37
			C222.22,34.04,223.17,33.54,223.54,32.51z"/>
		<path fill="#FFFFFF" d="M235.14,28.86h5.94v2.62h-5.94V28.86z"/>
		<path fill="#FFFFFF" d="M254.08,31.46c0,2.6-1.91,4.87-6.11,4.87c-2.04,0-4.18-0.57-5.61-1.58l1.34-2.6
			c1.11,0.84,2.65,1.32,4.18,1.32c1.7,0,2.75-0.71,2.75-1.91c0-1.15-0.76-1.91-3.42-1.91h-3.76l0.76-8.27h8.96v2.73h-6.13
			l-0.23,2.79h1.2C252.36,26.9,254.08,28.86,254.08,31.46z"/>
		<path fill="#FFFFFF" d="M255.46,28.73c0-4.85,2.69-7.6,6.3-7.6c3.63,0,6.3,2.75,6.3,7.6s-2.67,7.6-6.3,7.6
			C258.15,36.33,255.46,33.58,255.46,28.73z M264.64,28.73c0-3.34-1.18-4.72-2.88-4.72c-1.68,0-2.86,1.39-2.86,4.72
			s1.18,4.72,2.86,4.72C263.46,33.45,264.64,32.07,264.64,28.73z"/>
		<path fill="#FFFFFF" d="M269.47,25.27c0-2.48,1.51-4.05,3.65-4.05s3.63,1.55,3.63,4.05c0,2.5-1.49,4.05-3.63,4.05
			S269.47,27.74,269.47,25.27z M274.66,25.27c0-1.57-0.61-2.33-1.53-2.33c-0.9,0-1.53,0.78-1.53,2.33c0,1.55,0.63,2.33,1.53,2.33
			C274.05,27.6,274.66,26.84,274.66,25.27z M281.88,21.38h2.5l-10.04,14.7h-2.5L281.88,21.38z M279.47,32.19
			c0-2.48,1.51-4.05,3.63-4.05c2.14,0,3.65,1.57,3.65,4.05c0,2.48-1.51,4.05-3.65,4.05C280.98,36.25,279.47,34.67,279.47,32.19z
			 M284.63,32.19c0-1.55-0.61-2.33-1.53-2.33c-0.9,0-1.53,0.76-1.53,2.33c0,1.57,0.63,2.33,1.53,2.33
			C284.02,34.52,284.63,33.75,284.63,32.19z"/>
	</g>
	<g>
		<g>
			<g>
				<g>
					<g>
						<g>
							<g>
								<g>
									<path fill-rule="evenodd" clip-rule="evenodd" fill="#C63D00" d="M233.84,91.36H86.16c-2.14,0-3.9-1.75-3.9-3.9V58.63
										c0-2.14,1.75-3.9,3.9-3.9h147.68c2.14,0,3.9,1.75,3.9,3.9v28.84C237.73,89.61,235.98,91.36,233.84,91.36z"/>
									<path fill-rule="evenodd" clip-rule="evenodd" fill="#FCCD0F" d="M233.84,89.41H86.16c-2.14,0-3.9-1.75-3.9-3.9V57.26
										c0-2.14,1.75-3.9,3.9-3.9h147.68c2.14,0,3.9,1.75,3.9,3.9v28.25C237.73,87.65,235.98,89.41,233.84,89.41z"/>
									<path fill-rule="evenodd" clip-rule="evenodd" fill="#FFE499" d="M233.84,53.36H86.16c-2.14,0-3.9,1.75-3.9,3.9v0.77
										c0-2.14,1.75-3.9,3.9-3.9h147.68c2.14,0,3.9,1.75,3.9,3.9v-0.77C237.73,55.12,235.98,53.36,233.84,53.36z"/>
								</g>
							</g>
						</g>
					</g>
				</g>
			</g>
		</g>
		<g>
			<path fill="#121212" d="M116.99,66.14v10.64h-1.95v-8.97h-5.52v8.97h-1.95V66.14H116.99z"/>
			<path fill="#121212" d="M119.48,71.46c0-3.15,2.43-5.47,5.73-5.47s5.73,2.31,5.73,5.47s-2.43,5.47-5.73,5.47
				S119.48,74.61,119.48,71.46z M128.95,71.46c0-2.17-1.6-3.74-3.74-3.74c-2.14,0-3.74,1.57-3.74,3.74c0,2.17,1.6,3.74,3.74,3.74
				C127.36,75.2,128.95,73.64,128.95,71.46z"/>
			<path fill="#121212" d="M143.68,75.11v3.94h-1.82v-2.26h-8.16v2.26h-1.84l0.01-3.94h0.46c1.44-0.06,1.79-2.48,1.9-5.59l0.12-3.37
				h7.8v8.97H143.68z M134.81,75.11h5.4v-7.29h-4.16l-0.08,1.88C135.87,72.11,135.63,74.26,134.81,75.11z"/>
			<path fill="#121212" d="M154.75,69.93c0,2.34-1.73,3.78-4.53,3.78h-2.4v3.07h-1.98V66.14h4.38
				C153.02,66.14,154.75,67.57,154.75,69.93z M152.76,69.93c0-1.34-0.9-2.11-2.63-2.11h-2.31v4.22h2.31
				C151.86,72.04,152.76,71.26,152.76,69.93z"/>
			<path fill="#121212" d="M156.27,71.46c0-3.15,2.43-5.47,5.73-5.47s5.73,2.31,5.73,5.47s-2.43,5.47-5.73,5.47
				S156.27,74.61,156.27,71.46z M165.74,71.46c0-2.17-1.6-3.74-3.74-3.74c-2.14,0-3.74,1.57-3.74,3.74c0,2.17,1.6,3.74,3.74,3.74
				C164.14,75.2,165.74,73.64,165.74,71.46z"/>
			<path fill="#121212" d="M170.24,66.14h8.28v1.63h-6.34v2.61h3.15c2.55,0,3.91,1.09,3.91,3.1c0,2.11-1.52,3.3-4.21,3.3h-4.79
				V66.14z M174.92,75.26c1.52,0,2.33-0.59,2.33-1.72c0-1.11-0.78-1.64-2.33-1.64h-2.74v3.36H174.92z"/>
			<path fill="#121212" d="M191.15,66.14v10.64h-1.98v-4.56h-5.5v4.56h-1.98V66.14h1.98v4.39h5.5v-4.39H191.15z"/>
			<path fill="#121212" d="M202.41,75.12v1.66h-7.98V66.14h7.77v1.66h-5.79v2.77h5.14v1.63h-5.14v2.93H202.41z"/>
			<path fill="#121212" d="M212.9,75.12v1.66h-7.98V66.14h7.77v1.66h-5.79v2.77h5.14v1.63h-5.14v2.93H212.9z"/>
		</g>
	</g>
</g>
</svg>
